<svg width="17" height="17" viewBox="0 0 17 17" fill="none" xmlns="http://www.w3.org/2000/svg">
<path d="M14.875 3.1875H2.125C1.9841 3.1875 1.84898 3.24347 1.74935 3.3431C1.64972 3.44273 1.59375 3.57785 1.59375 3.71875V12.75C1.59375 13.0318 1.70569 13.302 1.90495 13.5013C2.10421 13.7006 2.37446 13.8125 2.65625 13.8125H14.3438C14.6255 13.8125 14.8958 13.7006 15.0951 13.5013C15.2943 13.302 15.4062 13.0318 15.4062 12.75V3.71875C15.4062 3.57785 15.3503 3.44273 15.2507 3.3431C15.151 3.24347 15.0159 3.1875 14.875 3.1875ZM6.55496 8.5L2.65625 12.0733V4.92668L6.55496 8.5ZM7.34121 9.22051L8.13809 9.9543C8.2361 10.0443 8.3643 10.0942 8.49734 10.0942C8.63039 10.0942 8.75859 10.0443 8.8566 9.9543L9.65348 9.22051L13.505 12.75H3.49098L7.34121 9.22051ZM10.445 8.5L14.3438 4.92602V12.074L10.445 8.5Z" fill="white"/>
</svg>
