<svg width="17" height="17" viewBox="0 0 17 17" fill="none" xmlns="http://www.w3.org/2000/svg">
<path d="M14.1884 5.46789L10.4696 1.74914C10.4202 1.69982 10.3616 1.66072 10.2971 1.63405C10.2326 1.60739 10.1635 1.5937 10.0938 1.59375H3.71875C3.43696 1.59375 3.16671 1.70569 2.96745 1.90495C2.76819 2.10421 2.65625 2.37446 2.65625 2.65625V14.3438C2.65625 14.6255 2.76819 14.8958 2.96745 15.0951C3.16671 15.2943 3.43696 15.4062 3.71875 15.4062H13.2812C13.563 15.4062 13.8333 15.2943 14.0326 15.0951C14.2318 14.8958 14.3438 14.6255 14.3438 14.3438V5.84375C14.3438 5.77396 14.3301 5.70485 14.3034 5.64036C14.2768 5.57587 14.2377 5.51726 14.1884 5.46789ZM10.0938 5.84375V2.92188L13.0156 5.84375H10.0938Z" fill="white"/>
</svg>
