<svg width="17" height="18" viewBox="0 0 17 18" fill="none" xmlns="http://www.w3.org/2000/svg">
<path d="M14.1884 5.96789L10.4696 2.24914C10.4202 2.19982 10.3616 2.16072 10.2971 2.13405C10.2326 2.10739 10.1635 2.0937 10.0938 2.09375H3.71875C3.43696 2.09375 3.16671 2.20569 2.96745 2.40495C2.76819 2.60421 2.65625 2.87446 2.65625 3.15625V14.8438C2.65625 15.1255 2.76819 15.3958 2.96745 15.5951C3.16671 15.7943 3.43696 15.9062 3.71875 15.9062H13.2812C13.563 15.9062 13.8333 15.7943 14.0326 15.5951C14.2318 15.3958 14.3438 15.1255 14.3438 14.8438V6.34375C14.3438 6.27396 14.3301 6.20485 14.3034 6.14036C14.2768 6.07587 14.2377 6.01726 14.1884 5.96789ZM10.0938 6.34375V3.42188L13.0156 6.34375H10.0938Z" fill="white"/>
</svg>
