<svg width="25" height="25" viewBox="0 0 25 25" fill="none" xmlns="http://www.w3.org/2000/svg">
<path d="M16.6667 2.75H7.66669C6.27476 2.75149 4.94026 3.30509 3.95602 4.28933C2.97178 5.27358 2.41818 6.60807 2.41669 8V17C2.41818 18.3919 2.97178 19.7264 3.95602 20.7107C4.94026 21.6949 6.27476 22.2485 7.66669 22.25H16.6667C18.0586 22.2485 19.3931 21.6949 20.3774 20.7107C21.3616 19.7264 21.9152 18.3919 21.9167 17V8C21.9152 6.60807 21.3616 5.27358 20.3774 4.28933C19.3931 3.30509 18.0586 2.75149 16.6667 2.75ZM12.1667 17C11.2767 17 10.4066 16.7361 9.66662 16.2416C8.9266 15.7471 8.34982 15.0443 8.00923 14.2221C7.66863 13.3998 7.57952 12.495 7.75315 11.6221C7.92679 10.7492 8.35537 9.94736 8.98471 9.31802C9.61404 8.68868 10.4159 8.2601 11.2888 8.08647C12.1617 7.91283 13.0665 8.00195 13.8888 8.34254C14.711 8.68314 15.4138 9.25991 15.9083 9.99993C16.4028 10.74 16.6667 11.61 16.6667 12.5C16.6654 13.6931 16.1909 14.837 15.3473 15.6806C14.5037 16.5243 13.3598 16.9988 12.1667 17ZM17.7917 8C17.5692 8 17.3517 7.93402 17.1667 7.8104C16.9817 7.68679 16.8375 7.51109 16.7523 7.30552C16.6672 7.09995 16.6449 6.87375 16.6883 6.65552C16.7317 6.43729 16.8389 6.23684 16.9962 6.0795C17.1535 5.92217 17.354 5.81502 17.5722 5.77162C17.7904 5.72821 18.0166 5.75049 18.2222 5.83564C18.4278 5.92078 18.6035 6.06498 18.7271 6.24998C18.8507 6.43499 18.9167 6.6525 18.9167 6.875C18.9167 7.17337 18.7982 7.45952 18.5872 7.6705C18.3762 7.88147 18.0901 8 17.7917 8ZM15.1667 12.5C15.1667 13.0933 14.9907 13.6734 14.6611 14.1667C14.3315 14.6601 13.8629 15.0446 13.3147 15.2716C12.7666 15.4987 12.1634 15.5581 11.5814 15.4424C10.9995 15.3266 10.4649 15.0409 10.0454 14.6213C9.62581 14.2018 9.34009 13.6672 9.22433 13.0853C9.10858 12.5033 9.16799 11.9001 9.39505 11.3519C9.62211 10.8038 10.0066 10.3352 10.5 10.0056C10.9933 9.67595 11.5733 9.5 12.1667 9.5C12.9623 9.5 13.7254 9.81607 14.288 10.3787C14.8506 10.9413 15.1667 11.7044 15.1667 12.5Z" fill="white"/>
</svg>
