<svg width="17" height="17" viewBox="0 0 17 17" fill="none" xmlns="http://www.w3.org/2000/svg">
<path d="M8.5 1.0625C6.95068 1.06426 5.46532 1.6805 4.36979 2.77604C3.27425 3.87157 2.65801 5.35693 2.65625 6.90625C2.65625 11.9066 7.96875 15.6832 8.1952 15.8412C8.28452 15.9038 8.39094 15.9374 8.5 15.9374C8.60906 15.9374 8.71548 15.9038 8.8048 15.8412C9.03125 15.6832 14.3438 11.9066 14.3438 6.90625C14.342 5.35693 13.7257 3.87157 12.6302 2.77604C11.5347 1.6805 10.0493 1.06426 8.5 1.0625ZM8.5 4.78125C8.92029 4.78125 9.33113 4.90588 9.68059 5.13938C10.03 5.37288 10.3024 5.70475 10.4632 6.09305C10.6241 6.48134 10.6662 6.90861 10.5842 7.32082C10.5022 7.73303 10.2998 8.11167 10.0026 8.40885C9.70541 8.70604 9.32678 8.90843 8.91457 8.99042C8.50236 9.07241 8.07509 9.03033 7.6868 8.86949C7.2985 8.70866 6.96663 8.43629 6.73313 8.08684C6.49963 7.73738 6.375 7.32654 6.375 6.90625C6.375 6.34266 6.59888 5.80216 6.9974 5.40365C7.39591 5.00513 7.93641 4.78125 8.5 4.78125Z" fill="white"/>
</svg>
