<svg width="25" height="25" viewBox="0 0 25 25" fill="none" xmlns="http://www.w3.org/2000/svg">
<path d="M22.2388 16.9138C22.0716 18.1841 21.4477 19.3502 20.4837 20.1942C19.5196 21.0382 18.2813 21.5023 17 21.5001C9.55626 21.5001 3.50001 15.4438 3.50001 8.00005C3.49771 6.71876 3.9619 5.48045 4.80588 4.51639C5.64986 3.55234 6.81592 2.92847 8.08626 2.7613C8.4075 2.72208 8.7328 2.7878 9.01362 2.94865C9.29444 3.10951 9.5157 3.35687 9.64438 3.6538L11.6244 8.07412V8.08537C11.7229 8.31267 11.7636 8.56083 11.7428 8.80769C11.722 9.05455 11.6404 9.29242 11.5053 9.50005C11.4884 9.52537 11.4706 9.5488 11.4519 9.57224L9.50001 11.886C10.2022 13.3129 11.6947 14.7922 13.1403 15.4963L15.4222 13.5547C15.4446 13.5359 15.4681 13.5184 15.4925 13.5022C15.7 13.3639 15.9387 13.2794 16.187 13.2565C16.4353 13.2336 16.6854 13.2729 16.9147 13.371L16.9269 13.3766L21.3434 15.3557C21.6409 15.4839 21.8889 15.705 22.0503 15.9858C22.2116 16.2667 22.2778 16.5922 22.2388 16.9138Z" fill="white"/>
</svg>
