<svg width="25" height="25" viewBox="0 0 25 25" fill="none" xmlns="http://www.w3.org/2000/svg">
<path d="M15.1377 14.1152L17.2939 15.1915C17.1917 15.7022 16.9155 16.1616 16.5124 16.4914C16.1092 16.8212 15.6042 17.0009 15.0833 16.9999C13.2937 16.9979 11.578 16.2861 10.3125 15.0207C9.04709 13.7552 8.3353 12.0395 8.33331 10.2499C8.33317 9.72971 8.51328 9.22553 8.843 8.82316C9.17271 8.4208 9.63167 8.14512 10.1418 8.04303L11.218 10.1993L10.3021 11.5624C10.2336 11.6651 10.1916 11.783 10.1796 11.9059C10.1677 12.0287 10.1862 12.1525 10.2336 12.2665C10.7702 13.5418 11.7848 14.5564 13.0602 15.093C13.1745 15.1425 13.2993 15.1628 13.4233 15.152C13.5474 15.1412 13.6668 15.0997 13.7708 15.0312L15.1377 14.1152ZM22.5833 12.4999C22.5837 14.1832 22.1482 15.838 21.3193 17.303C20.4905 18.7681 19.2964 19.9937 17.8533 20.8604C16.4103 21.7271 14.7674 22.2054 13.0847 22.2488C11.4019 22.2922 9.73662 21.8992 8.25081 21.108L5.05863 22.1721C4.79433 22.2602 4.51071 22.273 4.23956 22.209C3.9684 22.145 3.72043 22.0068 3.52342 21.8098C3.32642 21.6128 3.18818 21.3648 3.12419 21.0937C3.06019 20.8225 3.07299 20.5389 3.16113 20.2746L4.22519 17.0824C3.5297 15.7748 3.14125 14.326 3.08931 12.8458C3.03737 11.3657 3.32332 9.89316 3.92544 8.54003C4.52756 7.1869 5.43004 5.98873 6.56436 5.03646C7.69868 4.08419 9.03504 3.40285 10.472 3.04416C11.909 2.68548 13.4087 2.65886 14.8575 2.96635C16.3063 3.27383 17.666 3.90733 18.8334 4.81875C20.0008 5.73018 20.9452 6.89558 21.5949 8.2265C22.2447 9.55741 22.5827 11.0189 22.5833 12.4999ZM18.8333 14.7499C18.8334 14.6106 18.7947 14.474 18.7215 14.3554C18.6483 14.2368 18.5435 14.141 18.4189 14.0787L15.4189 12.5787C15.3008 12.5198 15.1693 12.4932 15.0376 12.5014C14.906 12.5096 14.7788 12.5524 14.6689 12.6255L13.2917 13.5443C12.6595 13.1967 12.1393 12.6765 11.7917 12.0443L12.7105 10.6671C12.7836 10.5573 12.8264 10.4301 12.8346 10.2984C12.8429 10.1667 12.8162 10.0352 12.7574 9.91709L11.2574 6.91709C11.1952 6.79154 11.0991 6.6859 10.98 6.61217C10.8608 6.53843 10.7234 6.49954 10.5833 6.49991C9.58875 6.49991 8.63492 6.895 7.93166 7.59826C7.2284 8.30152 6.83331 9.25535 6.83331 10.2499C6.83579 12.4372 7.70578 14.5342 9.25242 16.0808C10.7991 17.6274 12.896 18.4974 15.0833 18.4999C15.5758 18.4999 16.0634 18.4029 16.5184 18.2145C16.9733 18.026 17.3867 17.7498 17.735 17.4016C18.0832 17.0533 18.3594 16.6399 18.5479 16.185C18.7363 15.73 18.8333 15.2424 18.8333 14.7499Z" fill="white"/>
</svg>
