<svg width="25" height="25" viewBox="0 0 25 25" fill="none" xmlns="http://www.w3.org/2000/svg">
<path d="M20.6562 21.1109C20.5917 21.2286 20.4967 21.3267 20.3813 21.3951C20.2659 21.4636 20.1342 21.4998 20 21.5H15.5C15.3738 21.5 15.2496 21.4681 15.139 21.4073C15.0284 21.3465 14.9349 21.2587 14.8672 21.1522L11.0712 15.1869L5.555 21.2544C5.42053 21.3988 5.23454 21.4845 5.03735 21.4927C4.84017 21.5009 4.64769 21.4311 4.50163 21.2984C4.35558 21.1657 4.26773 20.9807 4.25713 20.7836C4.24653 20.5866 4.31403 20.3933 4.445 20.2456L10.2359 13.8706L4.36719 4.65313C4.29491 4.53973 4.25444 4.40898 4.25004 4.27458C4.24563 4.14018 4.27744 4.00707 4.34213 3.88918C4.40683 3.77129 4.50203 3.67296 4.61777 3.60449C4.73351 3.53603 4.86552 3.49993 5 3.5H9.5C9.62622 3.50004 9.7504 3.53194 9.86102 3.59274C9.97164 3.65353 10.0651 3.74127 10.1328 3.84781L13.9287 9.81312L19.445 3.74562C19.5795 3.60117 19.7655 3.51555 19.9626 3.50731C20.1598 3.49907 20.3523 3.56888 20.4984 3.70161C20.6444 3.83435 20.7323 4.01929 20.7429 4.21636C20.7535 4.41343 20.686 4.60674 20.555 4.75438L14.7641 11.1247L20.6328 20.3478C20.7047 20.4613 20.7448 20.5919 20.7489 20.7262C20.753 20.8604 20.721 20.9933 20.6562 21.1109Z" fill="white"/>
</svg>
