<svg width="24" height="24" viewBox="0 0 24 24" fill="none" xmlns="http://www.w3.org/2000/svg">
<path d="M22.4831 14.4688L21.3581 5.46875C21.2896 4.92489 21.0249 4.42475 20.6137 4.06224C20.2025 3.69974 19.6732 3.49981 19.125 3.5H3C2.60218 3.5 2.22064 3.65804 1.93934 3.93934C1.65804 4.22064 1.5 4.60218 1.5 5V13.25C1.5 13.6478 1.65804 14.0294 1.93934 14.3107C2.22064 14.592 2.60218 14.75 3 14.75H7.03687L10.5787 21.8356C10.6411 21.9602 10.7369 22.065 10.8555 22.1382C10.9741 22.2114 11.1107 22.2501 11.25 22.25C12.2446 22.25 13.1984 21.8549 13.9017 21.1516C14.6049 20.4484 15 19.4946 15 18.5V17H20.25C20.5693 17.0001 20.8849 16.9323 21.176 16.801C21.467 16.6697 21.7268 16.478 21.938 16.2385C22.1492 15.9991 22.3071 15.7175 22.4011 15.4123C22.4951 15.1072 22.523 14.7855 22.4831 14.4688ZM6.75 13.25H3V5H6.75V13.25ZM20.8125 15.2459C20.7426 15.3263 20.6561 15.3907 20.5591 15.4345C20.462 15.4784 20.3565 15.5007 20.25 15.5H14.25C14.0511 15.5 13.8603 15.579 13.7197 15.7197C13.579 15.8603 13.5 16.0511 13.5 16.25V18.5C13.5001 19.0202 13.32 19.5244 12.9903 19.9267C12.6606 20.3291 12.2016 20.6048 11.6916 20.7069L8.25 13.8228V5H19.125C19.3077 4.99994 19.4842 5.06658 19.6212 5.18742C19.7583 5.30825 19.8465 5.47496 19.8694 5.65625L20.9944 14.6562C21.0084 14.7618 20.9994 14.8692 20.9681 14.971C20.9367 15.0728 20.8836 15.1666 20.8125 15.2459Z" fill="#14FFEC"/>
</svg>
