<svg width="20" height="20" viewBox="0 0 20 20" fill="none" xmlns="http://www.w3.org/2000/svg">
<path d="M16.094 2.08516C16.0352 2.01892 15.963 1.96592 15.8822 1.92969C15.8014 1.89346 15.7138 1.87482 15.6252 1.875H4.37521C4.28652 1.87497 4.19884 1.89382 4.118 1.93029C4.03715 1.96676 3.965 2.02001 3.90632 2.08652C3.84765 2.15303 3.8038 2.23126 3.77769 2.31602C3.75158 2.40079 3.74382 2.49013 3.7549 2.57813L5.5635 17.6563C5.60158 17.9585 5.74875 18.2365 5.97735 18.4379C6.20595 18.6393 6.50023 18.7503 6.8049 18.75H13.1955C13.5013 18.7501 13.7964 18.6381 14.0252 18.4353C14.254 18.2324 14.4004 17.9528 14.4369 17.6492L16.2455 2.57813C16.2568 2.4899 16.2491 2.40029 16.223 2.31528C16.1968 2.23027 16.1528 2.15181 16.094 2.08516ZM14.9221 3.125L14.6955 5H5.3049L5.07834 3.125H14.9221Z" fill="#14FFEC"/>
</svg>
