<svg width="20" height="20" viewBox="0 0 20 20" fill="none" xmlns="http://www.w3.org/2000/svg">
<path d="M16.0413 8.09922L14.3405 2.32344C14.3024 2.19403 14.2235 2.08043 14.1155 1.99961C14.0075 1.91878 13.8762 1.87507 13.7413 1.875H6.25851C6.12362 1.87507 5.99236 1.91878 5.88436 1.99961C5.77636 2.08043 5.6974 2.19403 5.65929 2.32344L3.95851 8.09922C3.69167 8.98449 3.6777 9.92675 3.91819 10.8195C4.15868 11.7123 4.64405 12.5201 5.31945 13.1516C6.43053 14.1934 7.85801 14.8338 9.37492 14.9711V18.125H6.87492C6.70916 18.125 6.55019 18.1908 6.43298 18.3081C6.31577 18.4253 6.24992 18.5842 6.24992 18.75C6.24992 18.9158 6.31577 19.0747 6.43298 19.1919C6.55019 19.3092 6.70916 19.375 6.87492 19.375H13.1249C13.2907 19.375 13.4497 19.3092 13.5669 19.1919C13.6841 19.0747 13.7499 18.9158 13.7499 18.75C13.7499 18.5842 13.6841 18.4253 13.5669 18.3081C13.4497 18.1908 13.2907 18.125 13.1249 18.125H10.6249V14.9711C12.1419 14.8339 13.5694 14.1935 14.6804 13.1516C15.3556 12.52 15.8409 11.7122 16.0814 10.8195C16.3219 9.92672 16.308 8.98451 16.0413 8.09922ZM6.7257 3.125H13.2741L14.8437 8.45234C14.8507 8.47578 14.857 8.49922 14.8632 8.52266C13.1898 9.12266 11.3054 8.39766 10.2827 7.87969C8.31476 6.88359 6.75226 6.75703 5.59992 6.94766L6.7257 3.125Z" fill="#14FFEC"/>
</svg>
