<svg width="30" height="31" viewBox="0 0 30 31" fill="none" xmlns="http://www.w3.org/2000/svg">
<path d="M15 3.3125C12.5895 3.3125 10.2332 4.02728 8.22899 5.36646C6.22477 6.70564 4.66267 8.60907 3.74022 10.836C2.81778 13.063 2.57643 15.5135 3.04668 17.8777C3.51694 20.2418 4.67769 22.4134 6.38214 24.1179C8.08659 25.8223 10.2582 26.9831 12.6223 27.4533C14.9865 27.9236 17.437 27.6822 19.664 26.7598C21.8909 25.8373 23.7944 24.2752 25.1335 22.271C26.4727 20.2668 27.1875 17.9105 27.1875 15.5C27.1841 12.2687 25.899 9.17076 23.6141 6.8859C21.3292 4.60104 18.2313 3.31591 15 3.3125ZM18.4758 16.1633L13.7883 20.8508C13.7012 20.9379 13.5978 21.007 13.484 21.0541C13.3702 21.1013 13.2482 21.1255 13.125 21.1255C13.0018 21.1255 12.8798 21.1013 12.766 21.0541C12.6522 21.007 12.5488 20.9379 12.4617 20.8508C12.3746 20.7637 12.3055 20.6603 12.2584 20.5465C12.2112 20.4327 12.187 20.3107 12.187 20.1875C12.187 20.0643 12.2112 19.9423 12.2584 19.8285C12.3055 19.7147 12.3746 19.6113 12.4617 19.5242L16.4871 15.5L12.4617 11.4758C12.2858 11.2999 12.187 11.0613 12.187 10.8125C12.187 10.5637 12.2858 10.3251 12.4617 10.1492C12.6376 9.9733 12.8762 9.87448 13.125 9.87448C13.3738 9.87448 13.6124 9.9733 13.7883 10.1492L18.4758 14.8367C18.563 14.9238 18.6321 15.0272 18.6793 15.141C18.7265 15.2548 18.7507 15.3768 18.7507 15.5C18.7507 15.6232 18.7265 15.7452 18.6793 15.859C18.6321 15.9728 18.563 16.0762 18.4758 16.1633Z" fill="white"/>
</svg>