<svg width="18" height="19" viewBox="0 0 18 19" fill="none" xmlns="http://www.w3.org/2000/svg">
<path d="M15.2578 2.94693C15.1071 2.84342 14.9334 2.77834 14.7517 2.75739C14.5701 2.73643 14.3861 2.76023 14.2158 2.8267C13.2293 3.2106 11.2373 3.85467 9 3.85467C6.76266 3.85467 4.77 3.2106 3.78211 2.8267C3.61166 2.76053 3.42765 2.73691 3.24602 2.75787C3.06438 2.77883 2.8906 2.84375 2.7397 2.947C2.5888 3.05026 2.46535 3.18873 2.38002 3.35044C2.29469 3.51215 2.25006 3.69222 2.25 3.87506V7.79639C2.25 10.3164 2.92852 12.6937 4.16109 14.4887C5.43797 16.3492 7.15641 17.3715 9 17.3715C10.8436 17.3715 12.562 16.3471 13.8389 14.4887C15.0715 12.6951 15.75 10.3178 15.75 7.79779V3.87506C15.7497 3.69198 15.7047 3.51176 15.6189 3.35002C15.5331 3.18828 15.4092 3.04991 15.2578 2.94693ZM5.48438 9.87482C5.38489 9.98671 5.24503 10.0545 5.09556 10.0633C4.9461 10.072 4.79927 10.0211 4.68738 9.92158C4.57549 9.82209 4.50771 9.68223 4.49894 9.53277C4.49017 9.3833 4.54114 9.23648 4.64062 9.12459C5.04492 8.676 5.77828 8.37506 6.46875 8.37506C7.15922 8.37506 7.89258 8.676 8.29688 9.12459C8.39636 9.23648 8.44733 9.3833 8.43856 9.53277C8.42979 9.68223 8.36201 9.82209 8.25012 9.92158C8.19472 9.97084 8.13015 10.0087 8.06012 10.033C7.99008 10.0573 7.91595 10.0676 7.84194 10.0633C7.69247 10.0545 7.55261 9.98671 7.45312 9.87482C7.26469 9.66389 6.83086 9.50006 6.46875 9.50006C6.10664 9.50006 5.67 9.66459 5.48438 9.87482ZM11.847 13.24C11.4978 13.6543 11.0624 13.9873 10.5711 14.2157C10.0798 14.4441 9.54459 14.5625 9.00281 14.5625C8.46103 14.5625 7.92579 14.4441 7.43452 14.2157C6.94325 13.9873 6.50782 13.6543 6.15867 13.24C6.10539 13.1848 6.06396 13.1193 6.03692 13.0476C6.00987 12.9758 5.99779 12.8993 6.00142 12.8226C6.00504 12.746 6.02429 12.671 6.05799 12.6021C6.09169 12.5332 6.13912 12.4719 6.19736 12.422C6.25561 12.3721 6.32345 12.3347 6.3967 12.312C6.46995 12.2892 6.54708 12.2817 6.62334 12.2899C6.69959 12.2981 6.77337 12.3218 6.84013 12.3596C6.9069 12.3973 6.96523 12.4483 7.01156 12.5094C7.25502 12.8001 7.55923 13.0338 7.90278 13.1942C8.24633 13.3546 8.62086 13.4377 9 13.4377C9.37914 13.4377 9.75367 13.3546 10.0972 13.1942C10.4408 13.0338 10.745 12.8001 10.9884 12.5094C11.0853 12.396 11.2233 12.3256 11.372 12.3139C11.5208 12.3021 11.6681 12.35 11.7816 12.4469C11.895 12.5437 11.9654 12.6817 11.9771 12.8305C11.9888 12.9792 11.941 13.1265 11.8441 13.24H11.847ZM13.313 9.92193C13.2579 9.97122 13.1937 10.0092 13.1239 10.0336C13.0542 10.0581 12.9803 10.0685 12.9065 10.0644C12.8327 10.0603 12.7605 10.0417 12.6939 10.0096C12.6273 9.97759 12.5677 9.93274 12.5184 9.87764C12.33 9.6667 11.8962 9.50287 11.5341 9.50287C11.172 9.50287 10.7353 9.6674 10.5497 9.87764C10.5002 9.93322 10.4403 9.97852 10.3734 10.011C10.3064 10.0434 10.2337 10.0623 10.1595 10.0667C10.0852 10.071 10.0108 10.0607 9.94053 10.0363C9.87025 10.0119 9.80547 9.97384 9.74988 9.92439C9.6943 9.87495 9.64899 9.81504 9.61656 9.74808C9.58413 9.68113 9.5652 9.60844 9.56086 9.53418C9.55652 9.45991 9.56685 9.38551 9.59126 9.31523C9.61567 9.24496 9.65368 9.18018 9.70312 9.12459C10.1046 8.676 10.838 8.37506 11.5312 8.37506C12.2245 8.37506 12.9551 8.676 13.3594 9.12459C13.409 9.17985 13.4471 9.24439 13.4716 9.31447C13.4962 9.38456 13.5066 9.4588 13.5022 9.53293C13.4979 9.60705 13.479 9.67959 13.4465 9.74635C13.414 9.81312 13.3686 9.87279 13.313 9.92193Z" fill="#14FFEC"/>
</svg>
