<svg width="101" height="101" viewBox="0 0 101 101" fill="none" xmlns="http://www.w3.org/2000/svg">
<path d="M99.4058 32.1539V15.6122C99.4058 14.2031 98.2638 13.0605 96.8541 13.0605H88.5376H83.3286H67.3213V77.0805H72.553C72.5522 77.0322 72.5492 76.9847 72.5492 76.9363C72.5492 70.8594 77.4755 65.9331 83.5525 65.9331C89.6291 65.9331 94.5554 70.8594 94.5554 76.9363C94.5554 76.9847 94.5524 77.0322 94.5516 77.0805H96.8545C98.264 77.0805 99.4062 75.938 99.4062 74.5289V57.9872C92.2726 57.9872 86.4896 52.2044 86.4896 45.0703C86.4892 37.9369 92.272 32.1539 99.4058 32.1539Z" fill="#0C898B"/>
<path d="M1.59473 15.6122V32.1539C8.72864 32.1539 14.5117 37.937 14.5117 45.0705C14.5117 52.2044 8.72884 57.9874 1.59473 57.9874V74.5292C1.59473 75.9382 2.73729 77.0808 4.14636 77.0808H67.3207V13.0608H4.14636C2.73729 13.0608 1.59473 14.2032 1.59473 15.6122Z" fill="#37A89F"/>
<path d="M26.4727 35.274C26.4727 27.2901 28.3562 19.7475 31.6984 13.0605H4.13018C2.73019 13.0607 1.59473 14.2031 1.59473 15.6122V30.4645C1.59473 31.2273 2.17153 31.8671 2.93061 31.945C9.53289 32.6252 14.5117 38.1488 14.5117 44.7931C14.5117 51.4374 9.5327 56.9612 2.93041 57.6416C2.17153 57.7199 1.59473 58.3592 1.59473 59.1221V74.2518C1.59473 75.6586 2.73926 76.8034 4.14636 76.8034H48.8231C35.3571 67.8998 26.4727 52.6257 26.4727 35.274Z" fill="#005D5C"/>
<path d="M83.5519 87.9396C89.6287 87.9396 94.555 83.0134 94.555 76.9366C94.555 70.8597 89.6287 65.9335 83.5519 65.9335C77.4751 65.9335 72.5488 70.8597 72.5488 76.9366C72.5488 83.0134 77.4751 87.9396 83.5519 87.9396Z" fill="#1FC9BC"/>
<path d="M77.5426 76.9366C77.5426 71.7189 81.1755 67.3528 86.0489 66.2215C85.2464 66.0353 84.4114 65.9337 83.5521 65.9337C77.4751 65.9337 72.5488 70.86 72.5488 76.937C72.5488 83.0136 77.4751 87.9399 83.5521 87.9399C84.4114 87.9399 85.2464 87.8383 86.0489 87.6521C81.1753 86.52 77.5426 82.1539 77.5426 76.9366Z" fill="#005D5C"/>
<path d="M68.915 32.1975C68.915 31.3165 68.2013 30.6028 67.3203 30.6028C66.4393 30.6028 65.7256 31.3165 65.7256 32.1975V36.4501C65.7256 37.3311 66.4393 38.0448 67.3203 38.0448C68.2013 38.0448 68.915 37.3311 68.915 36.4501V32.1975Z" fill="#14FFEC"/>
<path d="M68.915 22.6291C68.915 21.7481 68.2013 21.0344 67.3203 21.0344C66.4393 21.0344 65.7256 21.7481 65.7256 22.6291V26.8818C65.7256 27.7628 66.4393 28.4765 67.3203 28.4765C68.2013 28.4765 68.915 27.7628 68.915 26.8818V22.6291Z" fill="#14FFEC"/>
<path d="M67.3203 59.3081C66.4393 59.3081 65.7256 60.0218 65.7256 60.9028V65.1555C65.7256 66.0364 66.4393 66.7502 67.3203 66.7502C68.2013 66.7502 68.915 66.0364 68.915 65.1555V60.9028C68.915 60.0218 68.2013 59.3081 67.3203 59.3081Z" fill="#14FFEC"/>
<path d="M68.915 51.3344C68.915 50.4535 68.2013 49.7397 67.3203 49.7397C66.4393 49.7397 65.7256 50.4535 65.7256 51.3344V55.5871C65.7256 56.4681 66.4393 57.1818 67.3203 57.1818C68.2013 57.1818 68.915 56.4681 68.915 55.5871V51.3344Z" fill="#14FFEC"/>
<path d="M68.915 41.7658C68.915 40.8848 68.2013 40.1711 67.3203 40.1711C66.4393 40.1711 65.7256 40.8848 65.7256 41.7658V46.0185C65.7256 46.8995 66.4393 47.6132 67.3203 47.6132C68.2013 47.6132 68.915 46.8995 68.915 46.0185V41.7658Z" fill="#14FFEC"/>
<path d="M55.1975 53.5596H25.6416C24.7606 53.5596 24.0469 54.2733 24.0469 55.1543C24.0469 56.0353 24.7606 56.749 25.6416 56.749H55.1973C56.0783 56.749 56.792 56.0353 56.792 55.1543C56.7922 54.2733 56.0781 53.5596 55.1975 53.5596Z" fill="#14FFEC"/>
<path d="M55.1975 46.8446H25.6416C24.7606 46.8446 24.0469 47.5583 24.0469 48.4393C24.0469 49.3203 24.7606 50.034 25.6416 50.034H55.1973C56.0783 50.034 56.792 49.3203 56.792 48.4393C56.792 47.5583 56.0781 46.8446 55.1975 46.8446Z" fill="#14FFEC"/>
<path d="M55.1975 40.1296H25.6416C24.7606 40.1296 24.0469 40.8433 24.0469 41.7243C24.0469 42.6053 24.7606 43.319 25.6416 43.319H55.1973C56.0783 43.319 56.792 42.6053 56.792 41.7243C56.792 40.8433 56.0781 40.1296 55.1975 40.1296Z" fill="#14FFEC"/>
<path d="M25.6416 36.6039H41.3473C42.2283 36.6039 42.942 35.8902 42.942 35.0092C42.942 34.1283 42.2283 33.4146 41.3473 33.4146H25.6416C24.7606 33.4146 24.0469 34.1283 24.0469 35.0092C24.0469 35.8902 24.7608 36.6039 25.6416 36.6039Z" fill="#14FFEC"/>
<path d="M99.4053 33.7486C100.286 33.7486 101 33.0348 101 32.1539V15.6121C101 13.3258 99.14 11.4658 96.8537 11.4658H88.5371C87.6564 11.4658 86.9425 12.1795 86.9425 13.0605C86.9425 13.9415 87.6566 14.6552 88.5371 14.6552H96.8537C97.3812 14.6552 97.8106 15.0845 97.8106 15.6121V30.646C90.5562 31.4423 84.8941 37.6073 84.8941 45.0702C84.8941 52.5334 90.5562 58.6987 97.8106 59.4949V74.5287C97.8106 75.0562 97.3814 75.4856 96.8537 75.4856H96.0668C96.0559 75.3907 96.0405 75.2974 96.0275 75.2033C96.0167 75.1246 96.0072 75.0455 95.9948 74.9674C95.9741 74.837 95.9496 74.708 95.9253 74.579C95.9119 74.5088 95.9005 74.4379 95.8861 74.3683C95.8553 74.22 95.82 74.073 95.7839 73.9262C95.7721 73.8775 95.7618 73.828 95.7492 73.7793C95.6985 73.5844 95.6436 73.3911 95.5843 73.1999C95.5738 73.1668 95.5618 73.1344 95.5511 73.1013C95.501 72.9446 95.4491 72.7886 95.3929 72.6347C95.3685 72.5681 95.3414 72.5028 95.316 72.4363C95.2704 72.3177 95.225 72.1988 95.1761 72.0818C95.145 72.0072 95.1108 71.9339 95.0783 71.8599C95.0311 71.7534 94.9844 71.6468 94.9343 71.5421C94.8976 71.4648 94.8585 71.3888 94.8203 71.3125C94.7705 71.2132 94.7204 71.1138 94.6682 71.0162C94.6265 70.9383 94.5833 70.8617 94.5401 70.785C94.4871 70.6905 94.4336 70.5966 94.3782 70.5037C94.3326 70.4273 94.2857 70.3516 94.2387 70.2764C94.1819 70.1857 94.1243 70.0955 94.0655 70.0062C94.0162 69.9316 93.9657 69.8576 93.915 69.7839C93.8546 69.6965 93.7929 69.6101 93.7304 69.5245C93.6775 69.4519 93.6242 69.3801 93.5698 69.3088C93.5053 69.2242 93.4392 69.1412 93.3727 69.0581C93.3171 68.9889 93.2613 68.9194 93.2041 68.8514C93.1352 68.7693 93.0646 68.6888 92.9938 68.6086C92.9356 68.5427 92.8774 68.4764 92.818 68.4115C92.7442 68.3314 92.6683 68.2533 92.5923 68.175C92.5326 68.1132 92.4734 68.0511 92.4124 67.9905C92.3316 67.9106 92.2487 67.8331 92.1659 67.7554C92.1065 67.6997 92.0485 67.6431 91.9881 67.5885C91.895 67.5043 91.7991 67.4232 91.7035 67.3419C91.6508 67.2971 91.5993 67.2508 91.5458 67.2066C91.3965 67.0837 91.2446 66.9639 91.0898 66.8479C91.0574 66.8237 91.0237 66.8014 90.9911 66.7773C90.8663 66.6856 90.7408 66.5951 90.6126 66.5079C90.5514 66.4662 90.4881 66.4272 90.4262 66.3867C90.3246 66.3203 90.2232 66.2536 90.1196 66.1899C90.0492 66.1467 89.9774 66.106 89.9062 66.0644C89.8083 66.007 89.7105 65.9494 89.6111 65.8946C89.5355 65.8529 89.4588 65.8137 89.3824 65.7736C89.2846 65.7224 89.1868 65.6711 89.0877 65.6225C89.0084 65.5837 88.9283 65.5466 88.848 65.5095C88.7492 65.4635 88.65 65.4182 88.55 65.3746C88.4679 65.3391 88.3853 65.3051 88.3022 65.271C88.2016 65.23 88.1004 65.1895 87.9986 65.1511C87.9144 65.1191 87.83 65.0885 87.7449 65.0584C87.6418 65.0219 87.5382 64.9868 87.4338 64.9528C87.3482 64.925 87.2622 64.8978 87.1758 64.8717C87.0699 64.8398 86.9634 64.8098 86.8565 64.781C86.7697 64.7573 86.6831 64.7341 86.5957 64.7122C86.4864 64.6849 86.3765 64.6603 86.266 64.6358C86.1792 64.6167 86.0928 64.5972 86.0052 64.58C85.8912 64.5575 85.7762 64.538 85.6612 64.5182C85.576 64.5038 85.491 64.4883 85.405 64.4756C85.2838 64.4577 85.1615 64.4435 85.0394 64.4291C84.9582 64.4194 84.8777 64.4082 84.7958 64.4001C84.6593 64.3867 84.5216 64.3778 84.3837 64.3685C84.3151 64.364 84.247 64.3573 84.1782 64.3539C83.9708 64.3437 83.7625 64.3379 83.5526 64.3379C83.3428 64.3379 83.1344 64.3437 82.9271 64.3539C82.8585 64.3573 82.7904 64.364 82.722 64.3683C82.5839 64.3772 82.4462 64.3865 82.3095 64.3999C82.228 64.408 82.1477 64.419 82.0666 64.4287C81.9441 64.4431 81.8216 64.4575 81.7003 64.4754C81.6147 64.4883 81.5301 64.5035 81.4449 64.5181C81.3295 64.5376 81.2141 64.5571 81.0998 64.58C81.0128 64.5972 80.9268 64.6165 80.8404 64.6356C80.7296 64.6601 80.6191 64.6849 80.5094 64.7122C80.4224 64.7339 80.3364 64.7569 80.25 64.7806C80.1425 64.8098 80.0354 64.84 79.9289 64.8721C79.8431 64.8978 79.7577 64.9248 79.6726 64.9524C79.5677 64.9864 79.4631 65.0219 79.3592 65.0588C79.2751 65.0885 79.1915 65.1189 79.1081 65.1505C79.0051 65.1893 78.9029 65.23 78.8013 65.2716C78.7194 65.3049 78.6376 65.3389 78.5565 65.3738C78.4551 65.4178 78.3549 65.4637 78.2547 65.5103C78.1758 65.547 78.0967 65.5835 78.0188 65.6218C77.918 65.6713 77.8187 65.7231 77.7195 65.7752C77.6447 65.8145 77.5694 65.8531 77.4954 65.8936C77.3938 65.9496 77.2938 66.0084 77.194 66.0672C77.1249 66.1078 77.0551 66.1471 76.9869 66.1891C76.8797 66.2548 76.7746 66.3238 76.6696 66.3927C76.6113 66.4309 76.5515 66.4676 76.4935 66.5071C76.3574 66.5996 76.2238 66.6955 76.0917 66.7931C76.0668 66.8115 76.041 66.8286 76.0161 66.8472C75.8605 66.9637 75.7078 67.0843 75.5577 67.2076C75.5083 67.2482 75.4612 67.291 75.4127 67.3322C75.3127 67.4171 75.2128 67.5019 75.1156 67.5897C75.0578 67.6419 75.0018 67.6964 74.9452 67.7499C74.8599 67.8297 74.7743 67.9096 74.6915 67.9919C74.6323 68.0505 74.5751 68.111 74.5171 68.1706C74.4392 68.2507 74.3616 68.3308 74.2859 68.4131C74.2277 68.4762 74.1711 68.5411 74.1143 68.6054C74.0421 68.6873 73.9701 68.7691 73.8997 68.853C73.8434 68.92 73.7888 68.9879 73.7339 69.056C73.6663 69.1402 73.5992 69.2248 73.5337 69.3106C73.4803 69.3806 73.428 69.4515 73.3759 69.5227C73.3124 69.6097 73.2499 69.6973 73.1885 69.7858C73.1384 69.8584 73.0887 69.9312 73.0404 70.0046C72.9806 70.0951 72.9222 70.1865 72.8646 70.2784C72.8182 70.3526 72.7721 70.4267 72.7273 70.5021C72.6709 70.5966 72.6168 70.6921 72.563 70.7879C72.5206 70.8633 72.4781 70.9385 72.4373 71.0148C72.3843 71.114 72.3336 71.2146 72.2833 71.3154C72.2456 71.3908 72.2071 71.4653 72.171 71.5415C72.1203 71.6478 72.073 71.7555 72.0254 71.8634C71.9933 71.9362 71.9599 72.0082 71.9292 72.0816C71.8795 72.2004 71.8335 72.3207 71.7873 72.441C71.7625 72.5057 71.7358 72.5694 71.712 72.6347C71.6548 72.7914 71.6019 72.9504 71.551 73.1098C71.5415 73.1399 71.5301 73.1695 71.5208 73.1997C71.4613 73.3911 71.4062 73.5846 71.3559 73.7797C71.3433 73.8282 71.3334 73.8777 71.3212 73.9264C71.2851 74.0732 71.2498 74.2202 71.219 74.3687C71.2046 74.4385 71.1928 74.5094 71.1797 74.5794C71.1553 74.7084 71.1308 74.8372 71.1103 74.9678C71.0979 75.0461 71.0884 75.1254 71.0774 75.2041C71.0643 75.298 71.0492 75.3915 71.0383 75.486H68.7234C68.8467 75.2596 68.9169 75 68.9169 74.724V70.4713C68.9169 69.5903 68.2032 68.8766 67.3222 68.8766C66.4412 68.8766 65.7275 69.5903 65.7275 70.4713V74.724C65.7275 75 65.7978 75.2596 65.921 75.486H4.14633C3.61884 75.486 3.18939 75.0568 3.18939 74.5291V59.4953C10.4438 58.6989 16.1063 52.5338 16.1063 45.0706C16.1063 37.6077 10.4438 31.4427 3.18939 30.6464V15.6127C3.18939 15.0853 3.61864 14.6558 4.14633 14.6558H65.7259V17.3138C65.7259 18.1947 66.4397 18.9085 67.3206 18.9085C68.2016 18.9085 68.9153 18.1947 68.9153 17.3138V14.6554H83.328C84.2088 14.6554 84.9227 13.9417 84.9227 13.0607C84.9227 12.1797 84.2086 11.466 83.328 11.466H4.14633C1.86002 11.4658 0 13.326 0 15.6121V32.1539C0 33.0348 0.713707 33.7486 1.5947 33.7486C7.83776 33.7486 12.917 38.8275 12.917 45.0704C12.917 51.3135 7.83776 56.3927 1.5947 56.3927C0.713707 56.3927 0 57.1064 0 57.9874V74.5291C0 76.8154 1.86002 78.6754 4.14633 78.6754H71.0768C71.9266 84.8013 77.1958 89.5341 83.5518 89.5341C89.908 89.5341 95.1767 84.8013 96.0265 78.6754H96.8535C99.1398 78.6754 101 76.8154 101 74.5291V57.9874C101 57.1064 100.286 56.3927 99.4051 56.3927C93.1624 56.3927 88.0832 51.3135 88.0832 45.0704C88.0834 38.8274 93.1626 33.7486 99.4053 33.7486ZM83.5518 86.3445C78.4064 86.3445 74.2149 82.1923 74.1464 77.063C74.1464 77.0598 74.1468 77.0564 74.1466 77.0531L74.1431 76.9363C74.1431 71.7486 78.3638 67.5277 83.5517 67.5277C84.0379 67.5277 84.5159 67.5648 84.9824 67.6364C89.4929 68.3276 92.9587 72.2337 92.9596 76.9343L92.9563 77.0529C92.9563 77.0563 92.9567 77.0594 92.9565 77.0628C92.8884 82.1923 88.6971 86.3445 83.5518 86.3445Z" fill="#14FFEC"/>
<path d="M88.1104 72.4946C88.566 72.9357 88.5786 73.6632 88.1378 74.1192L86.9966 75.2992L86.9945 75.2971L86.0382 76.2906L85.4381 76.9112L85.4401 76.9118L85.4158 76.9371L88.2577 79.6864C88.7132 80.1272 88.7259 80.8549 88.2852 81.311C87.8441 81.7668 87.1167 81.7792 86.6606 81.3385L85.4806 80.1972L85.4827 80.1951L84.4892 79.2388L83.8686 78.6387L83.868 78.6408L83.8434 78.6171L81.1131 81.4407C80.6723 81.8962 79.9446 81.9088 79.4885 81.4682C79.0328 81.0271 79.0204 80.2997 79.461 79.8436L80.6023 78.6636L80.6044 78.6656L81.5607 77.6722L82.1608 77.0516L82.1587 77.051L82.1838 77.0249L79.3412 74.2764C78.8856 73.8356 78.873 73.108 79.3137 72.6518C79.7548 72.1959 80.4821 72.1835 80.9383 72.6243L82.1182 73.7656L82.1162 73.7677L83.1096 74.724L83.7302 75.3241L83.7309 75.322L83.7555 75.3457L86.4858 72.5221C86.9266 72.0665 87.6542 72.0539 88.1104 72.4946Z" fill="#14FFEC"/>
</svg>
