<svg width="52" height="51" viewBox="0 0 52 51" fill="none" xmlns="http://www.w3.org/2000/svg">
<circle cx="26" cy="25.5" r="25.5" fill="#074344"/>
<path d="M36 15H15.375C14.8777 15 14.4008 15.1975 14.0492 15.5492C13.6975 15.9008 13.5 16.3777 13.5 16.875V34.6875C13.5001 34.8473 13.541 35.0044 13.6189 35.1439C13.6968 35.2834 13.809 35.4008 13.945 35.4847C14.0809 35.5686 14.2361 35.6164 14.3957 35.6236C14.5553 35.6307 14.7141 35.5969 14.857 35.5254L18.1875 33.8602L21.518 35.5254C21.6482 35.5906 21.7919 35.6245 21.9375 35.6245C22.0831 35.6245 22.2268 35.5906 22.357 35.5254L25.6875 33.8602L29.018 35.5254C29.1482 35.5906 29.2919 35.6245 29.4375 35.6245C29.5831 35.6245 29.7268 35.5906 29.857 35.5254L33.1875 33.8602L36.518 35.5254C36.6609 35.5969 36.8197 35.6307 36.9793 35.6236C37.1389 35.6164 37.2941 35.5686 37.43 35.4847C37.566 35.4008 37.6782 35.2834 37.7561 35.1439C37.834 35.0044 37.8749 34.8473 37.875 34.6875V16.875C37.875 16.3777 37.6775 15.9008 37.3258 15.5492C36.9742 15.1975 36.4973 15 36 15ZM29.1633 26.5242C29.2504 26.6113 29.3195 26.7147 29.3666 26.8285C29.4138 26.9423 29.438 27.0643 29.438 27.1875C29.438 27.3107 29.4138 27.4327 29.3666 27.5465C29.3195 27.6603 29.2504 27.7637 29.1633 27.8508C29.0762 27.9379 28.9728 28.007 28.859 28.0541C28.7452 28.1013 28.6232 28.1255 28.5 28.1255C28.3768 28.1255 28.2548 28.1013 28.141 28.0541C28.0272 28.007 27.9238 27.9379 27.8367 27.8508L25.6875 25.7004L23.5383 27.8508C23.4512 27.9379 23.3478 28.007 23.234 28.0541C23.1202 28.1013 22.9982 28.1255 22.875 28.1255C22.7518 28.1255 22.6298 28.1013 22.516 28.0541C22.4022 28.007 22.2988 27.9379 22.2117 27.8508C22.1246 27.7637 22.0555 27.6603 22.0084 27.5465C21.9612 27.4327 21.937 27.3107 21.937 27.1875C21.937 27.0643 21.9612 26.9423 22.0084 26.8285C22.0555 26.7147 22.1246 26.6113 22.2117 26.5242L24.3621 24.375L22.2117 22.2258C22.0358 22.0499 21.937 21.8113 21.937 21.5625C21.937 21.3137 22.0358 21.0751 22.2117 20.8992C22.3876 20.7233 22.6262 20.6245 22.875 20.6245C23.1238 20.6245 23.3624 20.7233 23.5383 20.8992L25.6875 23.0496L27.8367 20.8992C27.9238 20.8121 28.0272 20.743 28.141 20.6959C28.2548 20.6487 28.3768 20.6245 28.5 20.6245C28.6232 20.6245 28.7452 20.6487 28.859 20.6959C28.9728 20.743 29.0762 20.8121 29.1633 20.8992C29.2504 20.9863 29.3195 21.0897 29.3666 21.2035C29.4138 21.3173 29.438 21.4393 29.438 21.5625C29.438 21.6857 29.4138 21.8077 29.3666 21.9215C29.3195 22.0353 29.2504 22.1387 29.1633 22.2258L27.0129 24.375L29.1633 26.5242Z" fill="#14FFEC"/>
</svg>
