<svg width="20" height="20" viewBox="0 0 20 20" fill="none" xmlns="http://www.w3.org/2000/svg">
<path d="M13.125 5.93738C13.125 6.1228 13.07 6.30406 12.967 6.45823C12.864 6.6124 12.7176 6.73256 12.5462 6.80352C12.3749 6.87447 12.1864 6.89304 12.0046 6.85687C11.8227 6.82069 11.6557 6.7314 11.5246 6.60029C11.3935 6.46918 11.3042 6.30213 11.268 6.12028C11.2318 5.93842 11.2504 5.74992 11.3213 5.57861C11.3923 5.40731 11.5125 5.26089 11.6666 5.15788C11.8208 5.05486 12.0021 4.99988 12.1875 4.99988C12.4361 4.99988 12.6746 5.09865 12.8504 5.27447C13.0262 5.45028 13.125 5.68874 13.125 5.93738ZM16.4062 12.1155C15.2281 13.7436 13.4742 14.8405 11.1953 15.3764C9.62654 15.7452 7.79373 15.8452 5.71717 15.6835C5.84217 16.6116 6.01717 17.5892 6.24217 18.6163C6.27749 18.7781 6.24714 18.9473 6.15779 19.0868C6.06843 19.2262 5.92738 19.3245 5.76561 19.36C5.7215 19.3699 5.67643 19.3749 5.63123 19.3749C5.48875 19.3748 5.35057 19.326 5.2396 19.2366C5.12863 19.1473 5.05153 19.0227 5.02107 18.8835C4.76639 17.7189 4.57342 16.609 4.44217 15.5538C3.38904 15.4231 2.28019 15.2301 1.11561 14.9749C1.03543 14.9573 0.959499 14.9241 0.892158 14.8771C0.824816 14.8302 0.767379 14.7704 0.723126 14.7013C0.633754 14.5617 0.603508 14.3923 0.639043 14.2303C0.674577 14.0684 0.772982 13.9272 0.912609 13.8379C1.05224 13.7485 1.22165 13.7183 1.38357 13.7538C2.40962 13.9788 3.38618 14.154 4.31326 14.2796C4.14998 12.2046 4.25232 10.3733 4.62029 8.80613C5.15623 6.52722 6.25389 4.77332 7.88123 3.59363C8.98436 2.79363 10.9484 1.84675 14.0055 1.87488C15.6609 1.89129 17.1953 2.21316 17.4281 2.34988C17.5193 2.40365 17.5954 2.47973 17.6492 2.57097C17.7859 2.80535 18.1078 4.33582 18.1242 5.99129C18.1414 7.68035 17.857 10.1124 16.4062 12.1155ZM16.5961 3.403C15.5882 3.19711 14.5604 3.10512 13.532 3.12879C11.6305 3.17879 10.039 3.63582 8.78514 4.48738C8.95558 6.21334 9.71892 7.82688 10.9452 9.05332C12.1715 10.2798 13.785 11.0433 15.5109 11.2139C16.3633 9.96394 16.8203 8.36863 16.8703 6.46707C16.8942 5.4387 16.8024 4.4109 16.5969 3.403H16.5961Z" fill="#14FFEC"/>
</svg>
