<svg width="20" height="20" viewBox="0 0 20 20" fill="none" xmlns="http://www.w3.org/2000/svg">
<path d="M18.714 4.92181C18.6755 4.76182 18.6056 4.61106 18.5084 4.47829C18.4111 4.34552 18.2885 4.23338 18.1476 4.14838C15.6899 2.66166 12.8723 1.87573 9.99994 1.87573C7.12757 1.87573 4.30995 2.66166 1.85228 4.14838C1.71178 4.23359 1.58946 4.34567 1.49231 4.4782C1.39517 4.61074 1.32511 4.76113 1.28614 4.92076C1.24717 5.0804 1.24007 5.24615 1.26522 5.40854C1.29038 5.57093 1.34731 5.72676 1.43275 5.86713L8.93275 18.1538C9.04417 18.3375 9.20105 18.4894 9.38825 18.5948C9.57546 18.7002 9.78667 18.7556 10.0015 18.7556C10.2163 18.7556 10.4275 18.7002 10.6147 18.5948C10.802 18.4894 10.9588 18.3375 11.0703 18.1538L18.5703 5.86713C18.6558 5.727 18.7126 5.57124 18.7372 5.40893C18.7619 5.24663 18.754 5.08103 18.714 4.92181ZM14.4093 10.2757C13.7146 9.96041 12.9286 9.91011 12.1994 10.1343C11.4702 10.3585 10.8482 10.8417 10.4506 11.4928C10.053 12.1439 9.90739 12.918 10.0411 13.669C10.1748 14.4201 10.5787 15.0963 11.1765 15.5703L9.99994 17.4999L7.539 13.471C7.94303 13.289 8.30371 13.0231 8.59712 12.6909C8.89052 12.3588 9.10993 11.9681 9.24079 11.5447C9.37165 11.1213 9.41096 10.6749 9.35611 10.2352C9.30126 9.79543 9.15352 9.37238 8.92267 8.9941C8.69183 8.61582 8.38317 8.29096 8.01718 8.04108C7.65119 7.79121 7.23624 7.62203 6.79987 7.54479C6.3635 7.46754 5.91569 7.48398 5.48616 7.59303C5.05663 7.70208 4.65521 7.90124 4.30853 8.17728L3.81244 7.364C5.67575 6.2266 7.81653 5.62484 9.99955 5.62484C12.1826 5.62484 14.3233 6.2266 16.1867 7.364L14.4093 10.2757Z" fill="#14FFEC"/>
</svg>
