<svg width="20" height="20" viewBox="0 0 20 20" fill="none" xmlns="http://www.w3.org/2000/svg">
<path d="M17.9314 5.79763C17.858 5.72863 17.769 5.67838 17.6721 5.65118C17.5751 5.62397 17.4729 5.62061 17.3744 5.64138C17.253 5.20511 17.0466 4.79712 16.7671 4.44084C16.4876 4.08457 16.1405 3.78703 15.7456 3.56532C15.3508 3.34361 14.916 3.20211 14.4663 3.14893C14.0166 3.09575 13.5608 3.13195 13.1252 3.25544C12.8509 2.65706 12.4107 2.14999 11.8567 1.79448C11.3028 1.43898 10.6584 1.25 10.0002 1.25C9.34193 1.25 8.69755 1.43898 8.14358 1.79448C7.58962 2.14999 7.14937 2.65706 6.87515 3.25544C6.43959 3.13179 5.98388 3.0954 5.53421 3.14837C5.08454 3.20134 4.64976 3.34262 4.25485 3.56411C3.85994 3.78559 3.51268 4.08291 3.233 4.43899C2.95333 4.79507 2.74676 5.20289 2.62515 5.63904C2.52248 5.61797 2.41616 5.62306 2.31597 5.65384C2.21578 5.68462 2.12494 5.7401 2.05181 5.81517C1.97868 5.89025 1.9256 5.98252 1.89746 6.08348C1.86932 6.18444 1.86702 6.29086 1.89078 6.39294L4.27828 16.5367C4.34291 16.8109 4.49829 17.0553 4.71923 17.2302C4.94017 17.405 5.21371 17.5001 5.49547 17.5H14.5048C14.7866 17.5001 15.0601 17.405 15.2811 17.2302C15.502 17.0553 15.6574 16.8109 15.722 16.5367L18.1087 6.39294C18.1336 6.28687 18.1304 6.17612 18.0993 6.0717C18.0682 5.96727 18.0103 5.87279 17.9314 5.79763ZM5.49547 16.25L3.3525 7.14373L6.30953 7.98826L7.41109 16.25H5.49547ZM9.53609 5.76248L6.84156 6.8406L3.82828 5.97966C3.9155 5.66411 4.07245 5.37216 4.28753 5.12534C4.50262 4.87852 4.77036 4.68313 5.07102 4.55357C5.37168 4.42401 5.69758 4.36358 6.02471 4.37675C6.35183 4.38993 6.67182 4.47635 6.96109 4.62966C7.04617 4.67479 7.14052 4.69965 7.23679 4.70229C7.33305 4.70494 7.42863 4.6853 7.51606 4.64492C7.60348 4.60453 7.68039 4.54449 7.74079 4.46948C7.80118 4.39446 7.84342 4.30651 7.86422 4.21248C7.9724 3.72687 8.24288 3.29265 8.63105 2.98144C9.01921 2.67024 9.50186 2.50065 9.99937 2.50065C10.4969 2.50065 10.9795 2.67024 11.3677 2.98144C11.7559 3.29265 12.0263 3.72687 12.1345 4.21248C12.1553 4.30651 12.1976 4.39446 12.258 4.46948C12.3183 4.54449 12.3953 4.60453 12.4827 4.64492C12.5701 4.6853 12.6657 4.70494 12.762 4.70229C12.8582 4.69965 12.9526 4.67479 13.0377 4.62966C13.327 4.47606 13.6471 4.38939 13.9744 4.37607C14.3017 4.36275 14.6279 4.42311 14.9287 4.55269C15.2296 4.68227 15.4975 4.87777 15.7127 5.12475C15.9279 5.37174 16.0849 5.66389 16.172 5.97966L13.1595 6.83904L10.465 5.76091C10.1667 5.64209 9.83403 5.64265 9.53609 5.76248ZM14.5048 16.25H12.5892L13.6908 7.98826L16.6478 7.14373L14.5048 16.25Z" fill="#14FFEC"/>
</svg>
