<svg width="20" height="20" viewBox="0 0 20 20" fill="none" xmlns="http://www.w3.org/2000/svg">
<path d="M18.75 10.3125C18.7499 10.8385 18.5604 11.3468 18.216 11.7444C17.8717 12.142 17.3956 12.4022 16.875 12.4773V15.625C16.875 15.9565 16.7433 16.2745 16.5089 16.5089C16.2745 16.7433 15.9565 16.875 15.625 16.875H4.375C4.04348 16.875 3.72554 16.7433 3.49112 16.5089C3.2567 16.2745 3.125 15.9565 3.125 15.625V12.4773C2.70999 12.4174 2.32094 12.2395 2.00418 11.9648C1.68742 11.69 1.4563 11.33 1.33834 10.9277C1.22038 10.5253 1.22056 10.0975 1.33884 9.69519C1.45713 9.29291 1.68854 8.9331 2.00553 8.65861C2.32251 8.38413 2.71171 8.20653 3.12677 8.14696C3.54183 8.0874 3.96526 8.14838 4.34664 8.32265C4.72803 8.49692 5.05129 8.77713 5.27793 9.12992C5.50457 9.4827 5.62504 9.89319 5.625 10.3125V13.125C5.625 13.2908 5.69085 13.4497 5.80806 13.5669C5.92527 13.6842 6.08424 13.75 6.25 13.75C6.41576 13.75 6.57473 13.6842 6.69194 13.5669C6.80915 13.4497 6.875 13.2908 6.875 13.125V11.25H13.125V13.125C13.125 13.2908 13.1908 13.4497 13.3081 13.5669C13.4253 13.6842 13.5842 13.75 13.75 13.75C13.9158 13.75 14.0747 13.6842 14.1919 13.5669C14.3092 13.4497 14.375 13.2908 14.375 13.125V10.3125C14.375 9.73234 14.6055 9.17594 15.0157 8.7657C15.4259 8.35547 15.9823 8.125 16.5625 8.125C17.1427 8.125 17.6991 8.35547 18.1093 8.7657C18.5195 9.17594 18.75 9.73234 18.75 10.3125ZM3.4375 6.875C4.29467 6.87622 5.12055 7.1972 5.75356 7.77517C6.38657 8.35313 6.78117 9.14647 6.86016 10H13.1398C13.2188 9.14647 13.6134 8.35313 14.2464 7.77517C14.8795 7.1972 15.7053 6.87622 16.5625 6.875C16.6454 6.875 16.7249 6.84208 16.7835 6.78347C16.8421 6.72487 16.875 6.64538 16.875 6.5625V5.625C16.875 4.7962 16.5458 4.00134 15.9597 3.41529C15.3737 2.82924 14.5788 2.5 13.75 2.5H6.25C5.4212 2.5 4.62634 2.82924 4.04029 3.41529C3.45424 4.00134 3.125 4.7962 3.125 5.625V6.5625C3.125 6.64538 3.15792 6.72487 3.21653 6.78347C3.27513 6.84208 3.35462 6.875 3.4375 6.875Z" fill="#14FFEC"/>
</svg>
