<svg width="20" height="20" viewBox="0 0 20 20" fill="none" xmlns="http://www.w3.org/2000/svg">
<path d="M18.3333 2.20413V18.1405C18.3333 18.3242 18.2539 18.5005 18.1126 18.6304C17.9713 18.7603 17.7796 18.8333 17.5797 18.8333C17.3798 18.8333 17.1881 18.7603 17.0468 18.6304C16.9055 18.5005 16.8261 18.3242 16.8261 18.1405V13.9831H12.3043C12.1045 13.9831 11.9128 13.9101 11.7715 13.7802C11.6301 13.6503 11.5507 13.474 11.5507 13.2903C11.5857 11.6305 11.8137 9.979 12.2309 8.36386C13.1522 4.857 14.8987 2.5064 17.283 1.56754C17.3976 1.52241 17.5226 1.50412 17.6467 1.51431C17.7709 1.5245 17.8904 1.56286 17.9945 1.62595C18.0986 1.68903 18.184 1.77487 18.2432 1.87578C18.3023 1.97669 18.3333 2.0895 18.3333 2.20413ZM9.27949 2.09067C9.26473 1.99969 9.23042 1.91232 9.17854 1.83366C9.12667 1.755 9.05829 1.68663 8.97737 1.63252C8.89646 1.57842 8.80464 1.53967 8.70726 1.51853C8.60989 1.4974 8.50891 1.4943 8.41022 1.50943C8.31153 1.52455 8.2171 1.55759 8.13245 1.60662C8.04779 1.65564 7.9746 1.71968 7.91715 1.79498C7.85969 1.87029 7.81912 1.95536 7.7978 2.04524C7.77648 2.13511 7.77484 2.22799 7.79297 2.31845L8.52587 6.36143H6.27536V2.20413C6.27536 2.02036 6.19596 1.84412 6.05463 1.71418C5.9133 1.58424 5.72161 1.51124 5.52174 1.51124C5.32187 1.51124 5.13018 1.58424 4.98885 1.71418C4.84752 1.84412 4.76812 2.02036 4.76812 2.20413V6.36143H2.51761L3.25051 2.31845C3.26864 2.22799 3.267 2.13511 3.24568 2.04524C3.22436 1.95536 3.18379 1.87029 3.12633 1.79498C3.06887 1.71968 2.99568 1.65564 2.91103 1.60662C2.82637 1.55759 2.73195 1.52455 2.63326 1.50943C2.53457 1.4943 2.43359 1.4974 2.33622 1.51853C2.23884 1.53967 2.14702 1.57842 2.06611 1.63252C1.98519 1.68663 1.9168 1.755 1.86493 1.83366C1.81306 1.91232 1.77875 1.99969 1.76399 2.09067L1.01036 6.24797C1.0036 6.28547 1.00013 6.32341 1 6.36143C1.00151 7.34343 1.3805 8.29333 2.07002 9.04329C2.75954 9.79324 3.71519 10.295 4.76812 10.4598V18.1405C4.76812 18.3242 4.84752 18.5005 4.98885 18.6304C5.13018 18.7603 5.32187 18.8333 5.52174 18.8333C5.72161 18.8333 5.9133 18.7603 6.05463 18.6304C6.19596 18.5005 6.27536 18.3242 6.27536 18.1405V10.4598C7.32829 10.295 8.28394 9.79324 8.97346 9.04329C9.66298 8.29333 10.042 7.34343 10.0435 6.36143C10.0433 6.32341 10.0399 6.28547 10.0331 6.24797L9.27949 2.09067Z" fill="#14FFEC"/>
</svg>
