<svg width="20" height="20" viewBox="0 0 20 20" fill="none" xmlns="http://www.w3.org/2000/svg">
<path d="M12.1875 9.0625C12.1875 9.4769 12.0229 9.87433 11.7299 10.1674C11.4368 10.4604 11.0394 10.625 10.625 10.625H8.75V7.5H10.625C11.0394 7.5 11.4368 7.66462 11.7299 7.95764C12.0229 8.25067 12.1875 8.6481 12.1875 9.0625ZM18.125 10C18.125 11.607 17.6485 13.1779 16.7557 14.514C15.8629 15.8502 14.594 16.8916 13.1093 17.5065C11.6247 18.1215 9.99099 18.2824 8.41489 17.9689C6.8388 17.6554 5.39106 16.8815 4.25476 15.7452C3.11846 14.6089 2.34463 13.1612 2.03112 11.5851C1.71762 10.009 1.87852 8.37535 2.49348 6.8907C3.10844 5.40605 4.14985 4.1371 5.486 3.24431C6.82214 2.35152 8.39303 1.875 10 1.875C12.1542 1.87727 14.2195 2.73403 15.7427 4.25727C17.266 5.78051 18.1227 7.84581 18.125 10ZM13.4375 9.0625C13.4375 8.31658 13.1412 7.60121 12.6137 7.07376C12.0863 6.54632 11.3709 6.25 10.625 6.25H8.125C7.95924 6.25 7.80027 6.31585 7.68306 6.43306C7.56585 6.55027 7.5 6.70924 7.5 6.875V13.125C7.5 13.2908 7.56585 13.4497 7.68306 13.5669C7.80027 13.6842 7.95924 13.75 8.125 13.75C8.29076 13.75 8.44973 13.6842 8.56694 13.5669C8.68415 13.4497 8.75 13.2908 8.75 13.125V11.875H10.625C10.9943 11.875 11.3601 11.8023 11.7013 11.6609C12.0425 11.5196 12.3526 11.3124 12.6137 11.0512C12.8749 10.7901 13.0821 10.48 13.2234 10.1388C13.3648 9.79757 13.4375 9.43184 13.4375 9.0625Z" fill="#14FFEC"/>
</svg>
