<svg width="20" height="20" viewBox="0 0 20 20" fill="none" xmlns="http://www.w3.org/2000/svg">
<path d="M11.4727 7.5L12.6086 10H7.39141L8.52734 7.5H11.4727ZM18.125 4.375V15.625C18.125 15.9565 17.9933 16.2745 17.7589 16.5089C17.5245 16.7433 17.2065 16.875 16.875 16.875H3.125C2.79348 16.875 2.47554 16.7433 2.24112 16.5089C2.0067 16.2745 1.875 15.9565 1.875 15.625V4.375C1.875 4.04348 2.0067 3.72554 2.24112 3.49112C2.47554 3.2567 2.79348 3.125 3.125 3.125H16.875C17.2065 3.125 17.5245 3.2567 17.7589 3.49112C17.9933 3.72554 18.125 4.04348 18.125 4.375ZM16.25 10.625C16.25 10.4592 16.1842 10.3003 16.0669 10.1831C15.9497 10.0658 15.7908 10 15.625 10H13.9844L12.8453 7.5H13.75C13.9158 7.5 14.0747 7.43415 14.1919 7.31694C14.3092 7.19973 14.375 7.04076 14.375 6.875C14.375 6.70924 14.3092 6.55027 14.1919 6.43306C14.0747 6.31585 13.9158 6.25 13.75 6.25H6.25C6.08424 6.25 5.92527 6.31585 5.80806 6.43306C5.69085 6.55027 5.625 6.70924 5.625 6.875C5.625 7.04076 5.69085 7.19973 5.80806 7.31694C5.92527 7.43415 6.08424 7.5 6.25 7.5H7.15469L6.01562 10H4.375C4.20924 10 4.05027 10.0658 3.93306 10.1831C3.81585 10.3003 3.75 10.4592 3.75 10.625C3.75 10.7908 3.81585 10.9497 3.93306 11.0669C4.05027 11.1842 4.20924 11.25 4.375 11.25H5.45L4.43437 13.4914C4.39781 13.5665 4.37665 13.6481 4.37214 13.7314C4.36763 13.8148 4.37987 13.8982 4.40813 13.9767C4.43638 14.0553 4.48009 14.1274 4.53667 14.1888C4.59325 14.2501 4.66155 14.2996 4.73754 14.3341C4.81353 14.3687 4.89568 14.3877 4.97913 14.3899C5.06257 14.3922 5.14563 14.3778 5.2234 14.3474C5.30117 14.3171 5.37207 14.2715 5.43192 14.2133C5.49178 14.1551 5.53936 14.0855 5.57188 14.0086L6.82188 11.25H13.1766L14.4305 14.0086C14.5018 14.155 14.6275 14.2678 14.7808 14.3229C14.934 14.3781 15.1027 14.3712 15.251 14.3038C15.3993 14.2364 15.5154 14.1137 15.5746 13.962C15.6338 13.8103 15.6314 13.6414 15.568 13.4914L14.5523 11.25H15.625C15.7908 11.25 15.9497 11.1842 16.0669 11.0669C16.1842 10.9497 16.25 10.7908 16.25 10.625Z" fill="#14FFEC"/>
</svg>
