<svg width="20" height="20" viewBox="0 0 20 20" fill="none" xmlns="http://www.w3.org/2000/svg">
<path d="M19.9681 14.8023C19.9421 14.7244 19.9011 14.6524 19.8473 14.5904C19.7935 14.5284 19.7281 14.4776 19.6546 14.4409C19.5812 14.4042 19.5013 14.3823 19.4194 14.3765C19.3375 14.3707 19.2553 14.381 19.1775 14.407L17.8165 14.8609L15.5587 10.3453C15.5068 10.2416 15.4271 10.1543 15.3284 10.0933C15.2298 10.0324 15.1161 10 15.0001 9.99996H8.75011V8.12496H13.1251C13.2909 8.12496 13.4498 8.05911 13.5671 7.9419C13.6843 7.82469 13.7501 7.66572 13.7501 7.49996C13.7501 7.3342 13.6843 7.17523 13.5671 7.05802C13.4498 6.94081 13.2909 6.87496 13.1251 6.87496H8.75011V6.17184C9.33927 6.01971 9.85273 5.65794 10.1942 5.15433C10.5357 4.65072 10.6819 4.03984 10.6052 3.43621C10.5285 2.83258 10.2343 2.27763 9.77776 1.87538C9.32119 1.47314 8.73359 1.25122 8.12511 1.25122C7.51663 1.25122 6.92903 1.47314 6.47247 1.87538C6.0159 2.27763 5.72171 2.83258 5.64504 3.43621C5.56836 4.03984 5.71448 4.65072 6.05598 5.15433C6.39749 5.65794 6.91095 6.01971 7.50011 6.17184V7.01637C6.1525 7.32437 4.9655 8.11783 4.16565 9.24529C3.36581 10.3727 3.00913 11.7553 3.16371 13.1289C3.31828 14.5026 3.97328 15.7713 5.00369 16.6928C6.0341 17.6143 7.36775 18.1241 8.75011 18.125C11.3689 18.125 13.7259 16.3507 14.3556 13.9062C14.3761 13.8267 14.3808 13.7439 14.3693 13.6626C14.3578 13.5813 14.3304 13.503 14.2887 13.4323C14.247 13.3616 14.1918 13.2998 14.1262 13.2504C14.0606 13.201 13.9859 13.165 13.9064 13.1445C13.8268 13.124 13.7441 13.1193 13.6628 13.1308C13.5815 13.1423 13.5032 13.1696 13.4325 13.2113C13.3617 13.2531 13.2999 13.3083 13.2505 13.3739C13.2011 13.4395 13.1652 13.5142 13.1446 13.5937C12.6634 15.4687 10.7743 16.875 8.75011 16.875C7.69948 16.8746 6.68407 16.4962 5.88946 15.8089C5.09485 15.1215 4.57411 14.1712 4.42242 13.1316C4.27074 12.092 4.49823 11.0325 5.06333 10.1468C5.62843 9.26108 6.49338 8.60831 7.50011 8.30777V10.625C7.50011 10.7907 7.56596 10.9497 7.68317 11.0669C7.80038 11.1841 7.95935 11.25 8.12511 11.25H14.6134L16.9407 15.9046C17.0082 16.0391 17.1219 16.1448 17.2609 16.2022C17.4 16.2596 17.5551 16.2649 17.6978 16.2171L19.5728 15.5921C19.7299 15.5397 19.8597 15.4271 19.9338 15.279C20.008 15.1309 20.0203 14.9595 19.9681 14.8023ZM6.87511 3.74996C6.87511 3.50273 6.94842 3.26106 7.08577 3.0555C7.22313 2.84994 7.41835 2.68972 7.64676 2.59511C7.87516 2.5005 8.1265 2.47575 8.36897 2.52398C8.61145 2.57221 8.83418 2.69126 9.00899 2.86608C9.18381 3.04089 9.30286 3.26362 9.35109 3.5061C9.39932 3.74857 9.37457 3.99991 9.27996 4.22831C9.18535 4.45672 9.02514 4.65195 8.81957 4.7893C8.61401 4.92665 8.37234 4.99996 8.12511 4.99996C7.79359 4.99996 7.47565 4.86826 7.24123 4.63384C7.00681 4.39942 6.87511 4.08148 6.87511 3.74996Z" fill="#14FFEC"/>
</svg>
