<svg width="41" height="41" viewBox="0 0 41 41" fill="none" xmlns="http://www.w3.org/2000/svg">
<path d="M20.5 3.84375C17.2057 3.84375 13.9854 4.82062 11.2463 6.65083C8.50718 8.48105 6.37231 11.0824 5.11164 14.1259C3.85097 17.1695 3.52112 20.5185 4.1638 23.7495C4.80649 26.9805 6.39284 29.9483 8.72226 32.2777C11.0517 34.6072 14.0195 36.1935 17.2505 36.8362C20.4815 37.4789 23.8305 37.149 26.8741 35.8884C29.9176 34.6277 32.519 32.4928 34.3492 29.7537C36.1794 27.0146 37.1563 23.7943 37.1563 20.5C37.1516 16.0839 35.3952 11.85 32.2726 8.7274C29.15 5.60476 24.9161 3.84841 20.5 3.84375ZM26.5315 24.7185C26.6505 24.8376 26.745 24.9789 26.8094 25.1344C26.8738 25.2899 26.907 25.4566 26.907 25.625C26.907 25.7934 26.8738 25.9601 26.8094 26.1156C26.745 26.2711 26.6505 26.4124 26.5315 26.5315C26.4125 26.6505 26.2711 26.745 26.1156 26.8094C25.9601 26.8738 25.7934 26.907 25.625 26.907C25.4567 26.907 25.29 26.8738 25.1344 26.8094C24.9789 26.745 24.8376 26.6505 24.7185 26.5315L20.5 22.3114L16.2815 26.5315C16.1625 26.6505 16.0211 26.745 15.8656 26.8094C15.7101 26.8738 15.5434 26.907 15.375 26.907C15.2067 26.907 15.04 26.8738 14.8844 26.8094C14.7289 26.745 14.5876 26.6505 14.4685 26.5315C14.3495 26.4124 14.2551 26.2711 14.1906 26.1156C14.1262 25.9601 14.093 25.7934 14.093 25.625C14.093 25.4566 14.1262 25.2899 14.1906 25.1344C14.2551 24.9789 14.3495 24.8376 14.4685 24.7185L18.6886 20.5L14.4685 16.2815C14.2281 16.0411 14.093 15.715 14.093 15.375C14.093 15.035 14.2281 14.7089 14.4685 14.4685C14.7089 14.2281 15.035 14.093 15.375 14.093C15.715 14.093 16.0411 14.2281 16.2815 14.4685L20.5 18.6886L24.7185 14.4685C24.8376 14.3495 24.9789 14.255 25.1344 14.1906C25.29 14.1262 25.4567 14.093 25.625 14.093C25.7934 14.093 25.9601 14.1262 26.1156 14.1906C26.2711 14.255 26.4125 14.3495 26.5315 14.4685C26.6505 14.5876 26.745 14.7289 26.8094 14.8844C26.8738 15.0399 26.907 15.2067 26.907 15.375C26.907 15.5433 26.8738 15.7101 26.8094 15.8656C26.745 16.0211 26.6505 16.1624 26.5315 16.2815L22.3114 20.5L26.5315 24.7185Z" fill="white" fill-opacity="0.85"/>
</svg>
