<svg width="24" height="25" viewBox="0 0 24 25" fill="none" xmlns="http://www.w3.org/2000/svg">
<path d="M22.5 19.625H22.125V8.75C22.125 8.45163 22.0065 8.16548 21.7955 7.9545C21.5845 7.74353 21.2984 7.625 21 7.625H14.25C13.9516 7.625 13.6655 7.74353 13.4545 7.9545C13.2435 8.16548 13.125 8.45163 13.125 8.75V12.125H10.875V4.25C10.875 3.95163 10.7565 3.66548 10.5455 3.4545C10.3345 3.24353 10.0484 3.125 9.75 3.125H3C2.70163 3.125 2.41548 3.24353 2.2045 3.4545C1.99353 3.66548 1.875 3.95163 1.875 4.25V19.625H1.5C1.20163 19.625 0.915483 19.7435 0.704505 19.9545C0.493526 20.1655 0.375 20.4516 0.375 20.75C0.375 21.0484 0.493526 21.3345 0.704505 21.5455C0.915483 21.7565 1.20163 21.875 1.5 21.875H22.5C22.7984 21.875 23.0845 21.7565 23.2955 21.5455C23.5065 21.3345 23.625 21.0484 23.625 20.75C23.625 20.4516 23.5065 20.1655 23.2955 19.9545C23.0845 19.7435 22.7984 19.625 22.5 19.625ZM15.375 9.875H19.875V19.625H15.375V9.875ZM13.125 14.375V19.625H10.875V14.375H13.125ZM4.125 5.375H8.625V19.625H4.125V5.375ZM7.5 7.625V8.375C7.5 8.67337 7.38147 8.95952 7.1705 9.1705C6.95952 9.38147 6.67337 9.5 6.375 9.5C6.07663 9.5 5.79048 9.38147 5.5795 9.1705C5.36853 8.95952 5.25 8.67337 5.25 8.375V7.625C5.25 7.32663 5.36853 7.04048 5.5795 6.8295C5.79048 6.61853 6.07663 6.5 6.375 6.5C6.67337 6.5 6.95952 6.61853 7.1705 6.8295C7.38147 7.04048 7.5 7.32663 7.5 7.625ZM7.5 12.125V12.875C7.5 13.1734 7.38147 13.4595 7.1705 13.6705C6.95952 13.8815 6.67337 14 6.375 14C6.07663 14 5.79048 13.8815 5.5795 13.6705C5.36853 13.4595 5.25 13.1734 5.25 12.875V12.125C5.25 11.8266 5.36853 11.5405 5.5795 11.3295C5.79048 11.1185 6.07663 11 6.375 11C6.67337 11 6.95952 11.1185 7.1705 11.3295C7.38147 11.5405 7.5 11.8266 7.5 12.125ZM7.5 16.625V17.375C7.5 17.6734 7.38147 17.9595 7.1705 18.1705C6.95952 18.3815 6.67337 18.5 6.375 18.5C6.07663 18.5 5.79048 18.3815 5.5795 18.1705C5.36853 17.9595 5.25 17.6734 5.25 17.375V16.625C5.25 16.3266 5.36853 16.0405 5.5795 15.8295C5.79048 15.6185 6.07663 15.5 6.375 15.5C6.67337 15.5 6.95952 15.6185 7.1705 15.8295C7.38147 16.0405 7.5 16.3266 7.5 16.625ZM16.5 17.375V16.625C16.5 16.3266 16.6185 16.0405 16.8295 15.8295C17.0405 15.6185 17.3266 15.5 17.625 15.5C17.9234 15.5 18.2095 15.6185 18.4205 15.8295C18.6315 16.0405 18.75 16.3266 18.75 16.625V17.375C18.75 17.6734 18.6315 17.9595 18.4205 18.1705C18.2095 18.3815 17.9234 18.5 17.625 18.5C17.3266 18.5 17.0405 18.3815 16.8295 18.1705C16.6185 17.9595 16.5 17.6734 16.5 17.375ZM16.5 12.875V12.125C16.5 11.8266 16.6185 11.5405 16.8295 11.3295C17.0405 11.1185 17.3266 11 17.625 11C17.9234 11 18.2095 11.1185 18.4205 11.3295C18.6315 11.5405 18.75 11.8266 18.75 12.125V12.875C18.75 13.1734 18.6315 13.4595 18.4205 13.6705C18.2095 13.8815 17.9234 14 17.625 14C17.3266 14 17.0405 13.8815 16.8295 13.6705C16.6185 13.4595 16.5 13.1734 16.5 12.875Z" fill="#14FFEC"/>
</svg>
