<svg width="24" height="25" viewBox="0 0 24 25" fill="none" xmlns="http://www.w3.org/2000/svg">
<path d="M19.5001 2.375H15.7501C15.4517 2.375 15.1656 2.49353 14.9546 2.7045C14.7436 2.91548 14.6251 3.20163 14.6251 3.5C14.6251 3.79837 14.7436 4.08452 14.9546 4.2955C15.1656 4.50647 15.4517 4.625 15.7501 4.625H16.7814L15.3151 6.09406C14.5643 5.47016 13.6803 5.02701 12.7311 4.79879C11.782 4.57057 10.7931 4.56337 9.84075 4.77774C8.88839 4.99212 7.99798 5.42234 7.23818 6.03524C6.47838 6.64814 5.86948 7.42735 5.45843 8.31278C5.04738 9.19821 4.84516 10.1662 4.86737 11.1422C4.88958 12.1181 5.13562 13.0759 5.58652 13.9417C6.03742 14.8075 6.68113 15.5582 7.46803 16.1359C8.25492 16.7136 9.16398 17.1029 10.1251 17.2738V18.5H8.25011C7.95174 18.5 7.66559 18.6185 7.45461 18.8295C7.24363 19.0405 7.12511 19.3266 7.12511 19.625C7.12511 19.9234 7.24363 20.2095 7.45461 20.4205C7.66559 20.6315 7.95174 20.75 8.25011 20.75H10.1251V22.25C10.1251 22.5484 10.2436 22.8345 10.4546 23.0455C10.6656 23.2565 10.9517 23.375 11.2501 23.375C11.5485 23.375 11.8346 23.2565 12.0456 23.0455C12.2566 22.8345 12.3751 22.5484 12.3751 22.25V20.75H14.2501C14.5485 20.75 14.8346 20.6315 15.0456 20.4205C15.2566 20.2095 15.3751 19.9234 15.3751 19.625C15.3751 19.3266 15.2566 19.0405 15.0456 18.8295C14.8346 18.6185 14.5485 18.5 14.2501 18.5H12.3751V17.2738C13.3819 17.0942 14.3307 16.6747 15.1412 16.0509C15.9516 15.4271 16.5999 14.6173 17.0312 13.6899C17.4625 12.7626 17.6641 11.745 17.619 10.7233C17.5739 9.70154 17.2834 8.70571 16.772 7.82L18.3751 6.21875V7.25C18.3751 7.54837 18.4936 7.83452 18.7046 8.0455C18.9156 8.25647 19.2017 8.375 19.5001 8.375C19.7985 8.375 20.0846 8.25647 20.2956 8.0455C20.5066 7.83452 20.6251 7.54837 20.6251 7.25V3.5C20.6251 3.20163 20.5066 2.91548 20.2956 2.7045C20.0846 2.49353 19.7985 2.375 19.5001 2.375ZM11.2501 15.125C10.4343 15.125 9.63673 14.8831 8.95838 14.4298C8.28003 13.9766 7.75132 13.3323 7.4391 12.5786C7.12689 11.8248 7.0452 10.9954 7.20437 10.1953C7.36353 9.39508 7.7564 8.66008 8.33329 8.08318C8.91018 7.50629 9.64519 7.11343 10.4454 6.95426C11.2455 6.7951 12.0749 6.87679 12.8287 7.189C13.5824 7.50121 14.2267 8.02992 14.6799 8.70827C15.1332 9.38663 15.3751 10.1842 15.3751 11C15.3739 12.0936 14.9389 13.1421 14.1656 13.9154C13.3922 14.6888 12.3437 15.1238 11.2501 15.125Z" fill="#14FFEC"/>
</svg>
