<svg width="24" height="25" viewBox="0 0 24 25" fill="none" xmlns="http://www.w3.org/2000/svg">
<path d="M13.875 10.625C13.875 10.3266 13.9935 10.0405 14.2045 9.8295C14.4155 9.61853 14.7016 9.5 15 9.5H17.625C17.9234 9.5 18.2095 9.61853 18.4205 9.8295C18.6315 10.0405 18.75 10.3266 18.75 10.625C18.75 10.9234 18.6315 11.2095 18.4205 11.4205C18.2095 11.6315 17.9234 11.75 17.625 11.75H15C14.7016 11.75 14.4155 11.6315 14.2045 11.4205C13.9935 11.2095 13.875 10.9234 13.875 10.625ZM17.625 13.25H15.75C15.4516 13.25 15.1655 13.3685 14.9545 13.5795C14.7435 13.7905 14.625 14.0766 14.625 14.375C14.625 14.6734 14.7435 14.9595 14.9545 15.1705C15.1655 15.3815 15.4516 15.5 15.75 15.5H17.625C17.9234 15.5 18.2095 15.3815 18.4205 15.1705C18.6315 14.9595 18.75 14.6734 18.75 14.375C18.75 14.0766 18.6315 13.7905 18.4205 13.5795C18.2095 13.3685 17.9234 13.25 17.625 13.25ZM22.125 5.75V19.25C22.125 19.7473 21.9275 20.2242 21.5758 20.5758C21.2242 20.9275 20.7473 21.125 20.25 21.125H3.75C3.25272 21.125 2.77581 20.9275 2.42417 20.5758C2.07254 20.2242 1.875 19.7473 1.875 19.25V5.75C1.875 5.25272 2.07254 4.77581 2.42417 4.42417C2.77581 4.07254 3.25272 3.875 3.75 3.875H20.25C20.7473 3.875 21.2242 4.07254 21.5758 4.42417C21.9275 4.77581 22.125 5.25272 22.125 5.75ZM19.875 6.125H4.125V18.875H19.875V6.125ZM5.46375 15.4409C5.73369 14.802 6.16103 14.2417 6.70594 13.8125C6.31967 13.3134 6.0811 12.716 6.01729 12.0881C5.95349 11.4602 6.06701 10.827 6.34498 10.2604C6.62295 9.69382 7.05421 9.2165 7.58981 8.88268C8.12541 8.54885 8.74389 8.37189 9.375 8.37189C10.0061 8.37189 10.6246 8.54885 11.1602 8.88268C11.6958 9.2165 12.1271 9.69382 12.405 10.2604C12.683 10.827 12.7965 11.4602 12.7327 12.0881C12.6689 12.716 12.4303 13.3134 12.0441 13.8125C12.5893 14.2417 13.0169 14.8019 13.2872 15.4409C13.4023 15.7163 13.4033 16.0261 13.29 16.3022C13.1767 16.5784 12.9583 16.7982 12.683 16.9133C12.4076 17.0284 12.0978 17.0294 11.8217 16.9161C11.5455 16.8028 11.3257 16.5844 11.2106 16.3091C10.92 15.6116 10.1644 15.125 9.375 15.125C8.58563 15.125 7.83094 15.6125 7.53844 16.3091C7.4845 16.4496 7.40289 16.578 7.29844 16.6864C7.194 16.7949 7.06885 16.8813 6.9304 16.9405C6.79196 16.9997 6.64304 17.0305 6.49247 17.031C6.3419 17.0316 6.19275 17.002 6.05385 16.9439C5.91495 16.8857 5.78913 16.8003 5.68384 16.6927C5.57856 16.585 5.49596 16.4574 5.44093 16.3172C5.3859 16.177 5.35956 16.0273 5.36348 15.8768C5.3674 15.7262 5.4015 15.578 5.46375 15.4409ZM8.25 11.75C8.25 11.9725 8.31598 12.19 8.4396 12.375C8.56321 12.56 8.73891 12.7042 8.94448 12.7894C9.15005 12.8745 9.37625 12.8968 9.59448 12.8534C9.81271 12.81 10.0132 12.7028 10.1705 12.5455C10.3278 12.3882 10.435 12.1877 10.4784 11.9695C10.5218 11.7512 10.4995 11.525 10.4144 11.3195C10.3292 11.1139 10.185 10.9382 10 10.8146C9.81501 10.691 9.5975 10.625 9.375 10.625C9.07663 10.625 8.79048 10.7435 8.5795 10.9545C8.36853 11.1655 8.25 11.4516 8.25 11.75Z" fill="#14FFEC"/>
</svg>
