<svg width="24" height="25" viewBox="0 0 24 25" fill="none" xmlns="http://www.w3.org/2000/svg">
<path d="M23.4375 11.8756L19.1587 5.46031C18.9875 5.20342 18.7556 4.99277 18.4834 4.84705C18.2113 4.70133 17.9074 4.62506 17.5987 4.625H2.99996C2.79616 4.6247 2.59611 4.67976 2.42116 4.78431C2.24622 4.88886 2.10297 5.03897 2.00671 5.2186C1.91044 5.39824 1.86478 5.60064 1.8746 5.80421C1.88442 6.00777 1.94935 6.20484 2.06246 6.37438L6.14809 12.5L2.06246 18.6256C1.94935 18.7952 1.88442 18.9922 1.8746 19.1958C1.86478 19.3994 1.91044 19.6018 2.00671 19.7814C2.10297 19.961 2.24622 20.1111 2.42116 20.2157C2.59611 20.3202 2.79616 20.3753 2.99996 20.375H17.5987C17.9074 20.3749 18.2113 20.2987 18.4834 20.153C18.7556 20.0072 18.9875 19.7966 19.1587 19.5397L23.4375 13.1244C23.5608 12.9395 23.6266 12.7222 23.6266 12.5C23.6266 12.2778 23.5608 12.0605 23.4375 11.8756ZM17.3981 18.125H5.10184L8.43746 13.1244C8.5608 12.9395 8.62663 12.7222 8.62663 12.5C8.62663 12.2778 8.5608 12.0605 8.43746 11.8756L5.10184 6.875H17.3981L21.1481 12.5L17.3981 18.125Z" fill="#14FFEC"/>
</svg>
