<svg width="20" height="20" viewBox="0 0 20 20" fill="none" xmlns="http://www.w3.org/2000/svg">
<g clip-path="url(#clip0_4012_2771)">
<path d="M19.5045 3.62017L16.3795 0.495172C16.2622 0.377896 16.1031 0.312012 15.9373 0.312012C15.7714 0.312012 15.6124 0.377896 15.4951 0.495172C15.3778 0.612447 15.3119 0.771507 15.3119 0.937359C15.3119 1.10321 15.3778 1.26227 15.4951 1.37955L15.6787 1.56236L10.9779 6.26236C9.19742 5.3358 7.20367 5.41314 5.99586 6.62017C5.67712 6.94028 5.42744 7.32237 5.26227 7.74283C5.21154 7.85682 5.12879 7.95361 5.02407 8.02143C4.91936 8.08926 4.79719 8.12519 4.67242 8.12486C3.53258 8.16314 2.54274 8.57174 1.80914 9.30533C0.865391 10.2514 0.468516 11.6092 0.682579 13.1303C0.890391 14.5858 1.64586 16.0272 2.81227 17.1874C3.97867 18.3475 5.41695 19.1061 6.87477 19.3139C7.136 19.353 7.39969 19.3733 7.66383 19.3749C8.8607 19.3749 9.91617 18.9663 10.692 18.1905C11.4255 17.4569 11.8341 16.467 11.8724 15.3272C11.8723 15.2022 11.9086 15.0798 11.9768 14.9751C12.0451 14.8703 12.1424 14.7877 12.2568 14.7374C12.6773 14.5723 13.0594 14.3226 13.3795 14.0038C14.5865 12.796 14.6638 10.8006 13.7373 9.02174L18.4373 4.32095L18.6201 4.50455C18.6781 4.56262 18.7471 4.60868 18.823 4.64011C18.8988 4.67153 18.9801 4.68771 19.0623 4.68771C19.1444 4.68771 19.2257 4.67153 19.3016 4.64011C19.3774 4.60868 19.4464 4.56262 19.5045 4.50455C19.5625 4.44648 19.6086 4.37754 19.64 4.30167C19.6714 4.2258 19.6876 4.14448 19.6876 4.06236C19.6876 3.98024 19.6714 3.89892 19.64 3.82305C19.6086 3.74718 19.5625 3.67824 19.5045 3.62017ZM7.31695 16.0663C7.19976 16.1834 7.04085 16.2492 6.87516 16.2492C6.70947 16.2492 6.55056 16.1834 6.43336 16.0663L3.93336 13.5663C3.81619 13.449 3.7504 13.29 3.75048 13.1242C3.75055 12.9584 3.81648 12.7995 3.93375 12.6823C4.05103 12.5651 4.21004 12.4993 4.37582 12.4994C4.5416 12.4995 4.70056 12.5654 4.81773 12.6827L7.31774 15.1827C7.43475 15.3 7.5004 15.4589 7.50026 15.6246C7.50011 15.7903 7.43418 15.9492 7.31695 16.0663ZM10.6091 12.4835C10.3032 12.7895 9.91348 12.9979 9.48912 13.0824C9.06476 13.1669 8.62488 13.1236 8.22512 12.958C7.82535 12.7925 7.48366 12.5121 7.24326 12.1524C7.00285 11.7926 6.87453 11.3697 6.87453 10.937C6.87453 10.5043 7.00285 10.0813 7.24326 9.72157C7.48366 9.36182 7.82535 9.08144 8.22512 8.9159C8.62488 8.75036 9.06476 8.70709 9.48912 8.79157C9.91348 8.87604 10.3032 9.08447 10.6091 9.39048C11.0192 9.8007 11.2495 10.357 11.2495 10.937C11.2495 11.517 11.0192 12.0732 10.6091 12.4835ZM13.0357 7.9522C12.8885 7.77029 12.7321 7.5961 12.567 7.43033C12.4011 7.265 12.2266 7.10853 12.0443 6.96158L13.7498 5.25845L14.7412 6.24986L13.0357 7.9522ZM15.6248 5.36548L14.6341 4.37486L16.5623 2.44595L17.5537 3.43736L15.6248 5.36548Z" fill="#14FFEC"/>
</g>
<defs>
<clipPath id="clip0_4012_2771">
<rect width="20" height="20" fill="white"/>
</clipPath>
</defs>
</svg>
