<svg width="20" height="20" viewBox="0 0 20 20" fill="none" xmlns="http://www.w3.org/2000/svg">
<path d="M8.98914 3.62178C8.95684 3.58947 8.91785 3.56463 8.87491 3.54902C8.83197 3.53341 8.78613 3.5274 8.74062 3.53142C8.69511 3.53544 8.65104 3.5494 8.6115 3.5723C8.57197 3.5952 8.53793 3.62649 8.5118 3.66396C7.85256 4.60486 7.49929 5.72605 7.50008 6.8749C7.50065 7.12102 7.51709 7.36684 7.5493 7.61084L2.11883 15.0171C1.94109 15.2575 1.85582 15.5538 1.87863 15.8519C1.90144 16.15 2.0308 16.43 2.24305 16.6405L3.35946 17.7569C3.57001 17.9692 3.84994 18.0985 4.14804 18.1214C4.44615 18.1442 4.7425 18.0589 4.98289 17.8812L12.3899 12.4491C12.6336 12.4818 12.8792 12.4988 13.1251 12.4999C14.2735 12.501 15.3944 12.1483 16.3352 11.4897C16.3727 11.4636 16.404 11.4296 16.4269 11.39C16.4498 11.3505 16.4638 11.3064 16.4678 11.2609C16.4718 11.2154 16.4658 11.1696 16.4502 11.1266C16.4346 11.0837 16.4097 11.0447 16.3774 11.0124L8.98914 3.62178ZM9.19305 11.6905L7.94305 12.9405C7.88559 13.001 7.81661 13.0494 7.74016 13.0828C7.66371 13.1162 7.58136 13.1339 7.49794 13.135C7.41452 13.1361 7.33174 13.1204 7.25446 13.089C7.17719 13.0576 7.10699 13.011 7.048 12.952C6.98901 12.893 6.94243 12.8228 6.911 12.7455C6.87956 12.6682 6.86392 12.5855 6.86499 12.502C6.86606 12.4186 6.88381 12.3363 6.91721 12.2598C6.95061 12.1834 6.99898 12.1144 7.05946 12.0569L8.30946 10.8069C8.42762 10.6947 8.58496 10.633 8.74794 10.6351C8.91092 10.6372 9.06663 10.7029 9.18188 10.8181C9.29713 10.9334 9.3628 11.0891 9.36489 11.252C9.36697 11.415 9.30531 11.5724 9.19305 11.6905ZM17.7399 10.0843C17.7138 10.1219 17.6797 10.1533 17.6401 10.1763C17.6005 10.1993 17.5564 10.2133 17.5107 10.2173C17.4651 10.2213 17.4192 10.2153 17.3762 10.1996C17.3331 10.1839 17.2941 10.1589 17.2618 10.1265L9.87352 2.73818C9.84107 2.70588 9.81611 2.66684 9.80042 2.62382C9.78472 2.5808 9.77867 2.53486 9.7827 2.48925C9.78672 2.44363 9.80072 2.39946 9.82371 2.35986C9.84669 2.32025 9.8781 2.28618 9.91571 2.26006C10.9979 1.50494 12.3113 1.15473 13.6258 1.27082C14.9402 1.3869 16.1719 1.96186 17.105 2.89495C18.0381 3.82805 18.6131 5.05975 18.7292 6.37422C18.8452 7.6887 18.495 9.0021 17.7399 10.0843Z" fill="#14FFEC"/>
</svg>
