<svg width="30" height="30" viewBox="0 0 30 30" fill="none" xmlns="http://www.w3.org/2000/svg">
<path d="M29.8688 5.69063L27.3688 0.690625C27.2648 0.482951 27.1051 0.308332 26.9075 0.186346C26.7099 0.0643614 26.4822 -0.000165938 26.25 3.20471e-07H3.75C3.51778 -0.000165938 3.2901 0.0643614 3.09249 0.186346C2.89489 0.308332 2.73517 0.482951 2.63125 0.690625L0.13125 5.69063C0.0450888 5.86452 0.000175758 6.05593 0 6.25V27.5C0 28.163 0.263392 28.7989 0.732233 29.2678C1.20107 29.7366 1.83696 30 2.5 30H27.5C28.163 30 28.7989 29.7366 29.2678 29.2678C29.7366 28.7989 30 28.163 30 27.5V6.25C29.9998 6.05593 29.9549 5.86452 29.8688 5.69063ZM20.8844 17.1344C20.7683 17.2506 20.6304 17.3428 20.4787 17.4057C20.3269 17.4686 20.1643 17.501 20 17.501C19.8357 17.501 19.6731 17.4686 19.5213 17.4057C19.3696 17.3428 19.2317 17.2506 19.1156 17.1344L16.25 14.2672V23.75C16.25 24.0815 16.1183 24.3995 15.8839 24.6339C15.6495 24.8683 15.3315 25 15 25C14.6685 25 14.3505 24.8683 14.1161 24.6339C13.8817 24.3995 13.75 24.0815 13.75 23.75V14.2672L10.8844 17.1344C10.7682 17.2505 10.6304 17.3426 10.4786 17.4055C10.3269 17.4683 10.1642 17.5007 10 17.5007C9.83576 17.5007 9.67312 17.4683 9.52138 17.4055C9.36964 17.3426 9.23176 17.2505 9.11562 17.1344C8.99949 17.0182 8.90736 16.8804 8.84451 16.7286C8.78165 16.5769 8.7493 16.4142 8.7493 16.25C8.7493 16.0858 8.78165 15.9231 8.84451 15.7714C8.90736 15.6196 8.99949 15.4818 9.11562 15.3656L14.1156 10.3656C14.2317 10.2494 14.3696 10.1572 14.5213 10.0943C14.6731 10.0314 14.8357 9.99902 15 9.99902C15.1643 9.99902 15.3269 10.0314 15.4787 10.0943C15.6304 10.1572 15.7683 10.2494 15.8844 10.3656L20.8844 15.3656C21.0006 15.4817 21.0928 15.6196 21.1557 15.7713C21.2186 15.9231 21.251 16.0857 21.251 16.25C21.251 16.4143 21.2186 16.5769 21.1557 16.7287C21.0928 16.8804 21.0006 17.0183 20.8844 17.1344ZM3.27187 5L4.52187 2.5H25.4781L26.7281 5H3.27187Z" fill="white"/>
</svg>
