<svg width="20" height="21" viewBox="0 0 20 21" fill="none" xmlns="http://www.w3.org/2000/svg">
<path d="M16.875 7.375H15.625V6.125C15.625 5.2962 15.2958 4.50134 14.7097 3.91529C14.1237 3.32924 13.3288 3 12.5 3H11.6266C10.6961 2.20312 9.43906 1.75 8.125 1.75C5.36797 1.75 3.125 3.7125 3.125 6.125V16.75C3.125 17.0815 3.2567 17.3995 3.49112 17.6339C3.72554 17.8683 4.04348 18 4.375 18H14.375C14.7065 18 15.0245 17.8683 15.2589 17.6339C15.4933 17.3995 15.625 17.0815 15.625 16.75V16.125H16.875C17.3723 16.125 17.8492 15.9275 18.2008 15.5758C18.5525 15.2242 18.75 14.7473 18.75 14.25V9.25C18.75 8.75272 18.5525 8.27581 18.2008 7.92417C17.8492 7.57254 17.3723 7.375 16.875 7.375ZM8.125 14.875C8.125 15.0408 8.05915 15.1997 7.94194 15.3169C7.82473 15.4342 7.66576 15.5 7.5 15.5C7.33424 15.5 7.17527 15.4342 7.05806 15.3169C6.94085 15.1997 6.875 15.0408 6.875 14.875V8.625C6.875 8.45924 6.94085 8.30027 7.05806 8.18306C7.17527 8.06585 7.33424 8 7.5 8C7.66576 8 7.82473 8.06585 7.94194 8.18306C8.05915 8.30027 8.125 8.45924 8.125 8.625V14.875ZM11.875 14.875C11.875 15.0408 11.8092 15.1997 11.6919 15.3169C11.5747 15.4342 11.4158 15.5 11.25 15.5C11.0842 15.5 10.9253 15.4342 10.8081 15.3169C10.6908 15.1997 10.625 15.0408 10.625 14.875V8.625C10.625 8.45924 10.6908 8.30027 10.8081 8.18306C10.9253 8.06585 11.0842 8 11.25 8C11.4158 8 11.5747 8.06585 11.6919 8.18306C11.8092 8.30027 11.875 8.45924 11.875 8.625V14.875ZM4.45312 5.5C4.80156 4.075 6.31641 3 8.125 3C9.20859 3 10.2391 3.39062 10.9539 4.07656C11.0702 4.18785 11.225 4.24998 11.3859 4.25H12.5C12.8876 4.25012 13.2657 4.37038 13.5822 4.59424C13.8987 4.81809 14.138 5.13453 14.2672 5.5H4.45312ZM17.5 14.25C17.5 14.4158 17.4342 14.5747 17.3169 14.6919C17.1997 14.8092 17.0408 14.875 16.875 14.875H15.625V8.625H16.875C17.0408 8.625 17.1997 8.69085 17.3169 8.80806C17.4342 8.92527 17.5 9.08424 17.5 9.25V14.25Z" fill="#14FFEC"/>
</svg>
