<svg width="20" height="21" viewBox="0 0 20 21" fill="none" xmlns="http://www.w3.org/2000/svg">
<path d="M17.5 8.6251H16.8461C16.6891 6.91797 15.8999 5.3311 14.6334 4.17574C13.3668 3.02038 11.7143 2.37988 10 2.37988C8.28566 2.37988 6.63318 3.02038 5.36665 4.17574C4.10012 5.3311 3.31095 6.91797 3.15391 8.6251H2.5C2.33424 8.6251 2.17527 8.69095 2.05806 8.80816C1.94085 8.92537 1.875 9.08434 1.875 9.2501C1.87775 10.7364 2.28679 12.1938 3.0579 13.4644C3.82901 14.7351 4.93283 15.7708 6.25 16.4595V16.7501C6.25 17.0816 6.3817 17.3996 6.61612 17.634C6.85054 17.8684 7.16848 18.0001 7.5 18.0001H12.5C12.8315 18.0001 13.1495 17.8684 13.3839 17.634C13.6183 17.3996 13.75 17.0816 13.75 16.7501V16.4595C15.0672 15.7708 16.171 14.7351 16.9421 13.4644C17.7132 12.1938 18.1223 10.7364 18.125 9.2501C18.125 9.08434 18.0592 8.92537 17.9419 8.80816C17.8247 8.69095 17.6658 8.6251 17.5 8.6251ZM13.5531 4.89307C13.6964 5.01026 13.8336 5.13396 13.9648 5.26416C12.3011 5.84944 10.9262 7.05229 10.125 8.62354H7.82031C8.21094 7.52856 8.93011 6.58089 9.87956 5.90998C10.829 5.23907 11.9624 4.87766 13.125 4.8751C13.268 4.8751 13.4109 4.88213 13.5531 4.89307ZM11.5719 8.6251C12.3296 7.48829 13.476 6.66691 14.7961 6.31494C15.2277 7.01702 15.4985 7.80595 15.5891 8.6251H11.5719ZM10 3.6251C10.5015 3.62543 11.0008 3.69296 11.4844 3.82588C10.3066 4.11805 9.22663 4.71552 8.35334 5.55809C7.48005 6.40065 6.8443 7.45853 6.51016 8.6251H4.41094C4.56597 7.25077 5.22135 5.98156 6.25212 5.05943C7.28288 4.1373 8.61696 3.62675 10 3.6251Z" fill="#14FFEC"/>
</svg>
