<svg width="20" height="21" viewBox="0 0 20 21" fill="none" xmlns="http://www.w3.org/2000/svg">
<path d="M17.5 7.375C17.502 5.92224 17.0803 4.50043 16.2867 3.28359C16.2299 3.19652 16.1523 3.12499 16.0609 3.07547C15.9695 3.02595 15.8672 3.00001 15.7633 3H4.23673C4.13278 3.00001 4.03047 3.02595 3.93907 3.07547C3.84767 3.12499 3.77007 3.19652 3.71329 3.28359C2.91967 4.50043 2.49804 5.92224 2.50001 7.375C2.50228 9.25522 3.20983 11.0662 4.48279 12.45C5.75575 13.8337 7.5015 14.6896 9.37501 14.8484V17.375H6.87501C6.70925 17.375 6.55028 17.4408 6.43307 17.5581C6.31586 17.6753 6.25001 17.8342 6.25001 18C6.25001 18.1658 6.31586 18.3247 6.43307 18.4419C6.55028 18.5592 6.70925 18.625 6.87501 18.625H13.125C13.2908 18.625 13.4497 18.5592 13.5669 18.4419C13.6842 18.3247 13.75 18.1658 13.75 18C13.75 17.8342 13.6842 17.6753 13.5669 17.5581C13.4497 17.4408 13.2908 17.375 13.125 17.375H10.625V14.8484C12.4985 14.6896 14.2443 13.8337 15.5172 12.45C16.7902 11.0662 17.4977 9.25522 17.5 7.375ZM4.58594 4.25H15.4141C15.8574 5.01647 16.1318 5.86884 16.2188 6.75H3.78126C3.86826 5.86884 4.14262 5.01647 4.58594 4.25Z" fill="#14FFEC"/>
</svg>
