<svg width="20" height="21" viewBox="0 0 20 21" fill="none" xmlns="http://www.w3.org/2000/svg">
<path d="M16.25 6.75H2.5C2.33424 6.75 2.17527 6.81585 2.05806 6.93306C1.94085 7.05027 1.875 7.20924 1.875 7.375V11.125C1.87687 12.1891 2.10442 13.2406 2.54264 14.2102C2.98086 15.1799 3.61977 16.0455 4.41719 16.75H2.5C2.33424 16.75 2.17527 16.8158 2.05806 16.9331C1.94085 17.0503 1.875 17.2092 1.875 17.375C1.875 17.5408 1.94085 17.6997 2.05806 17.8169C2.17527 17.9342 2.33424 18 2.5 18H16.25C16.4158 18 16.5747 17.9342 16.6919 17.8169C16.8092 17.6997 16.875 17.5408 16.875 17.375C16.875 17.2092 16.8092 17.0503 16.6919 16.9331C16.5747 16.8158 16.4158 16.75 16.25 16.75H14.3328C15.29 15.9016 16.0159 14.8239 16.4422 13.618C17.236 13.5691 17.9813 13.2193 18.5263 12.64C19.0712 12.0606 19.3747 11.2953 19.375 10.5V9.875C19.375 9.0462 19.0458 8.25134 18.4597 7.66529C17.8737 7.07924 17.0788 6.75 16.25 6.75ZM18.125 10.5C18.1247 10.9044 17.9937 11.2978 17.7516 11.6216C17.5094 11.9454 17.169 12.1823 16.7812 12.2969C16.8432 11.9093 16.8745 11.5175 16.875 11.125V8.10781C17.2405 8.23703 17.5569 8.47634 17.7808 8.79281C18.0046 9.10928 18.1249 9.48736 18.125 9.875V10.5ZM8.75 4.875V2.375C8.75 2.20924 8.81585 2.05027 8.93306 1.93306C9.05027 1.81585 9.20924 1.75 9.375 1.75C9.54076 1.75 9.69973 1.81585 9.81694 1.93306C9.93415 2.05027 10 2.20924 10 2.375V4.875C10 5.04076 9.93415 5.19973 9.81694 5.31694C9.69973 5.43415 9.54076 5.5 9.375 5.5C9.20924 5.5 9.05027 5.43415 8.93306 5.31694C8.81585 5.19973 8.75 5.04076 8.75 4.875ZM11.25 4.875V2.375C11.25 2.20924 11.3158 2.05027 11.4331 1.93306C11.5503 1.81585 11.7092 1.75 11.875 1.75C12.0408 1.75 12.1997 1.81585 12.3169 1.93306C12.4342 2.05027 12.5 2.20924 12.5 2.375V4.875C12.5 5.04076 12.4342 5.19973 12.3169 5.31694C12.1997 5.43415 12.0408 5.5 11.875 5.5C11.7092 5.5 11.5503 5.43415 11.4331 5.31694C11.3158 5.19973 11.25 5.04076 11.25 4.875ZM6.25 4.875V2.375C6.25 2.20924 6.31585 2.05027 6.43306 1.93306C6.55027 1.81585 6.70924 1.75 6.875 1.75C7.04076 1.75 7.19973 1.81585 7.31694 1.93306C7.43415 2.05027 7.5 2.20924 7.5 2.375V4.875C7.5 5.04076 7.43415 5.19973 7.31694 5.31694C7.19973 5.43415 7.04076 5.5 6.875 5.5C6.70924 5.5 6.55027 5.43415 6.43306 5.31694C6.31585 5.19973 6.25 5.04076 6.25 4.875Z" fill="#14FFEC"/>
</svg>
