<svg width="20" height="21" viewBox="0 0 20 21" fill="none" xmlns="http://www.w3.org/2000/svg">
<path d="M17.5 9.875C16.6712 9.875 15.8763 9.54576 15.2903 8.95971C14.7042 8.37366 14.375 7.5788 14.375 6.75C14.375 6.58424 14.3092 6.42527 14.1919 6.30806C14.0747 6.19085 13.9158 6.125 13.75 6.125C12.9212 6.125 12.1263 5.79576 11.5403 5.20971C10.9542 4.62366 10.625 3.8288 10.625 3C10.625 2.83424 10.5592 2.67527 10.4419 2.55806C10.3247 2.44085 10.1658 2.375 10 2.375C8.39303 2.375 6.82214 2.85152 5.486 3.74431C4.14985 4.6371 3.10844 5.90605 2.49348 7.3907C1.87852 8.87535 1.71762 10.509 2.03112 12.0851C2.34463 13.6612 3.11846 15.1089 4.25476 16.2452C5.39106 17.3815 6.8388 18.1554 8.4149 18.4689C9.99099 18.7824 11.6247 18.6215 13.1093 18.0065C14.594 17.3916 15.8629 16.3502 16.7557 15.014C17.6485 13.6779 18.125 12.107 18.125 10.5C18.125 10.3342 18.0592 10.1753 17.9419 10.0581C17.8247 9.94085 17.6658 9.875 17.5 9.875ZM5.89922 8.27422C6.03046 8.14343 6.19752 8.05447 6.37928 8.01856C6.56105 7.98265 6.74938 8.0014 6.9205 8.07246C7.09162 8.14351 7.23784 8.26367 7.34071 8.41777C7.44358 8.57187 7.49848 8.753 7.49848 8.93828C7.49848 9.12356 7.44358 9.30469 7.34071 9.45879C7.23784 9.61289 7.09162 9.73305 6.9205 9.80411C6.74938 9.87516 6.56105 9.89391 6.37928 9.85801C6.19752 9.82209 6.03046 9.73313 5.89922 9.60234C5.81182 9.51525 5.74248 9.41175 5.69516 9.2978C5.64784 9.18384 5.62348 9.06167 5.62348 8.93828C5.62348 8.81489 5.64784 8.69272 5.69516 8.57876C5.74248 8.46481 5.81182 8.36132 5.89922 8.27422ZM7.85235 13.9773C7.72111 14.1081 7.55405 14.1971 7.37229 14.233C7.19052 14.2689 7.00218 14.2502 6.83107 14.1791C6.65995 14.1081 6.51373 13.9879 6.41086 13.8338C6.30799 13.6797 6.25309 13.4986 6.25309 13.3133C6.25309 13.128 6.30799 12.9469 6.41086 12.7928C6.51373 12.6387 6.65995 12.5185 6.83107 12.4475C7.00218 12.3764 7.19052 12.3576 7.37229 12.3936C7.55405 12.4295 7.72111 12.5184 7.85235 12.6492C7.93941 12.7364 8.00844 12.8399 8.05548 12.9537C8.10253 13.0676 8.12667 13.1896 8.12652 13.3128C8.12638 13.436 8.10195 13.558 8.05464 13.6717C8.00732 13.7855 7.93805 13.8888 7.85078 13.9758L7.85235 13.9773ZM9.64922 10.8523C9.51844 10.7211 9.42947 10.5541 9.39356 10.3723C9.35765 10.1905 9.37641 10.0022 9.44746 9.83107C9.51851 9.65995 9.63868 9.51372 9.79278 9.41085C9.94688 9.30798 10.128 9.25308 10.3133 9.25308C10.4986 9.25308 10.6797 9.30798 10.8338 9.41085C10.9879 9.51372 11.1081 9.65995 11.1791 9.83107C11.2502 10.0022 11.2689 10.1905 11.233 10.3723C11.1971 10.5541 11.1081 10.7211 10.9773 10.8523C10.8901 10.9396 10.7866 11.0089 10.6726 11.0561C10.5586 11.1032 10.4363 11.1274 10.313 11.1273C10.1896 11.1272 10.0674 11.1027 9.95353 11.0552C9.83963 11.0078 9.73622 10.9383 9.64922 10.8508V10.8523ZM12.8523 14.6023C12.7211 14.7331 12.5541 14.8221 12.3723 14.858C12.1905 14.8939 12.0022 14.8752 11.8311 14.8041C11.66 14.7331 11.5137 14.6129 11.4109 14.4588C11.308 14.3047 11.2531 14.1236 11.2531 13.9383C11.2531 13.753 11.308 13.5719 11.4109 13.4178C11.5137 13.2637 11.66 13.1435 11.8311 13.0725C12.0022 13.0014 12.1905 12.9826 12.3723 13.0186C12.5541 13.0545 12.7211 13.1434 12.8523 13.2742C12.9394 13.3614 13.0084 13.4649 13.0555 13.5787C13.1025 13.6926 13.1267 13.8146 13.1265 13.9378C13.1264 14.061 13.1019 14.183 13.0546 14.2967C13.0073 14.4105 12.9381 14.5138 12.8508 14.6008L12.8523 14.6023Z" fill="#14FFEC"/>
</svg>
