<svg width="20" height="21" viewBox="0 0 20 21" fill="none" xmlns="http://www.w3.org/2000/svg">
<g clip-path="url(#clip0_1528_2374)">
<path d="M6.875 4.25V1.75C6.875 1.58424 6.94085 1.42527 7.05806 1.30806C7.17527 1.19085 7.33424 1.125 7.5 1.125C7.66576 1.125 7.82473 1.19085 7.94194 1.30806C8.05916 1.42527 8.125 1.58424 8.125 1.75V4.25C8.125 4.41576 8.05916 4.57473 7.94194 4.69194C7.82473 4.80915 7.66576 4.875 7.5 4.875C7.33424 4.875 7.17527 4.80915 7.05806 4.69194C6.94085 4.57473 6.875 4.41576 6.875 4.25ZM10 4.875C10.1658 4.875 10.3247 4.80915 10.4419 4.69194C10.5592 4.57473 10.625 4.41576 10.625 4.25V1.75C10.625 1.58424 10.5592 1.42527 10.4419 1.30806C10.3247 1.19085 10.1658 1.125 10 1.125C9.83424 1.125 9.67527 1.19085 9.55806 1.30806C9.44085 1.42527 9.375 1.58424 9.375 1.75V4.25C9.375 4.41576 9.44085 4.57473 9.55806 4.69194C9.67527 4.80915 9.83424 4.875 10 4.875ZM12.5 4.875C12.6658 4.875 12.8247 4.80915 12.9419 4.69194C13.0592 4.57473 13.125 4.41576 13.125 4.25V1.75C13.125 1.58424 13.0592 1.42527 12.9419 1.30806C12.8247 1.19085 12.6658 1.125 12.5 1.125C12.3342 1.125 12.1753 1.19085 12.0581 1.30806C11.9409 1.42527 11.875 1.58424 11.875 1.75V4.25C11.875 4.41576 11.9409 4.57473 12.0581 4.69194C12.1753 4.80915 12.3342 4.875 12.5 4.875ZM19.875 7.625C19.7755 7.49239 19.6275 7.40472 19.4634 7.38128C19.2993 7.35784 19.1326 7.40054 19 7.5L17.5 8.625V6.75C17.5 6.58424 17.4342 6.42527 17.3169 6.30806C17.1997 6.19085 17.0408 6.125 16.875 6.125H3.125C2.95924 6.125 2.80027 6.19085 2.68306 6.30806C2.56585 6.42527 2.5 6.58424 2.5 6.75V8.625L1 7.5C0.867394 7.40054 0.700709 7.35784 0.536614 7.38128C0.37252 7.40472 0.224459 7.49239 0.125003 7.625C0.0255464 7.75761 -0.0171579 7.92429 0.00628412 8.08839C0.0297262 8.25248 0.117394 8.40054 0.250003 8.5L2.5 10.1875V14.875C2.5 15.538 2.76339 16.1739 3.23224 16.6428C3.70108 17.1116 4.33696 17.375 5 17.375H15C15.663 17.375 16.2989 17.1116 16.7678 16.6428C17.2366 16.1739 17.5 15.538 17.5 14.875V10.1875L19.75 8.5C19.8157 8.45075 19.871 8.38906 19.9128 8.31843C19.9546 8.24781 19.9821 8.16964 19.9937 8.08839C20.0053 8.00714 20.0008 7.9244 19.9804 7.84489C19.9601 7.76538 19.9242 7.69066 19.875 7.625Z" fill="#14FFEC"/>
</g>
<defs>
<clipPath id="clip0_1528_2374">
<rect width="20" height="20" fill="white" transform="translate(0 0.5)"/>
</clipPath>
</defs>
</svg>
