<svg width="17" height="16" viewBox="0 0 17 16" fill="none" xmlns="http://www.w3.org/2000/svg">
<path d="M6.5 4H16.5M0.5 12H10.5" stroke="white" stroke-linecap="round"/>
<path d="M0.5 4C0.5 5.65685 1.84315 7 3.5 7C5.15685 7 6.5 5.65685 6.5 4C6.5 2.34315 5.15685 1 3.5 1C1.84315 1 0.5 2.34315 0.5 4Z" stroke="white" stroke-linecap="round"/>
<path d="M10.5 12C10.5 13.6569 11.8431 15 13.5 15C15.1569 15 16.5 13.6569 16.5 12C16.5 10.3431 15.1569 9 13.5 9C11.8431 9 10.5 10.3431 10.5 12Z" stroke="white" stroke-linecap="round"/>
</svg>
