<svg width="20" height="21" viewBox="0 0 20 21" fill="none" xmlns="http://www.w3.org/2000/svg">
<path d="M2.77969 8.16094C2.66181 8.01592 2.57795 7.84631 2.53428 7.66459C2.49061 7.48288 2.48824 7.29369 2.52734 7.11094C3.10781 4.36719 6.25 2.375 10 2.375C13.75 2.375 16.8922 4.36719 17.4727 7.11094C17.5122 7.29382 17.5102 7.48325 17.4667 7.66524C17.4233 7.84723 17.3395 8.01715 17.2217 8.16246C17.1038 8.30778 16.9548 8.42477 16.7857 8.50483C16.6166 8.58488 16.4316 8.62595 16.2445 8.625H3.75547C3.56847 8.62556 3.38372 8.58416 3.21485 8.50385C3.04597 8.42353 2.89726 8.30635 2.77969 8.16094ZM17.9109 12.4125L14.6977 13.5844L11.7969 12.4195C11.6479 12.36 11.4818 12.36 11.3328 12.4195L8.44219 13.5766L5.54688 12.4195C5.40434 12.3626 5.24583 12.3601 5.10156 12.4125L1.66406 13.6625C1.51878 13.7264 1.40327 13.8433 1.34098 13.9893C1.2787 14.1353 1.2743 14.2995 1.32868 14.4487C1.38306 14.5978 1.49215 14.7206 1.6338 14.7923C1.77546 14.8639 1.93906 14.879 2.09141 14.8344L3.125 14.4602V14.875C3.125 15.7038 3.45424 16.4987 4.04029 17.0847C4.62634 17.6708 5.4212 18 6.25 18H13.75C14.5788 18 15.3737 17.6708 15.9597 17.0847C16.5458 16.4987 16.875 15.7038 16.875 14.875V14.1195L18.3383 13.5875C18.4203 13.5635 18.4966 13.5229 18.5623 13.4682C18.6281 13.4136 18.6819 13.346 18.7205 13.2697C18.7591 13.1934 18.7816 13.11 18.7866 13.0247C18.7917 12.9393 18.7792 12.8539 18.7499 12.7735C18.7206 12.6932 18.6752 12.6198 18.6163 12.5577C18.5575 12.4957 18.4866 12.4463 18.408 12.4128C18.3293 12.3792 18.2447 12.3622 18.1592 12.3627C18.0737 12.3632 17.9892 12.3812 17.9109 12.4156V12.4125ZM1.875 11.125H18.125C18.2908 11.125 18.4497 11.0592 18.5669 10.9419C18.6842 10.8247 18.75 10.6658 18.75 10.5C18.75 10.3342 18.6842 10.1753 18.5669 10.0581C18.4497 9.94085 18.2908 9.875 18.125 9.875H1.875C1.70924 9.875 1.55027 9.94085 1.43306 10.0581C1.31585 10.1753 1.25 10.3342 1.25 10.5C1.25 10.6658 1.31585 10.8247 1.43306 10.9419C1.55027 11.0592 1.70924 11.125 1.875 11.125Z" fill="#14FFEC"/>
</svg>
