<svg width="18" height="23" viewBox="0 0 18 23" fill="none" xmlns="http://www.w3.org/2000/svg">
<path d="M4.75 7.5H8V12.5H4.75V13.5H5.5C6.16304 13.5 6.79893 13.7634 7.26777 14.2322C7.73661 14.7011 8 15.337 8 16C8 16.663 7.73661 17.2989 7.26777 17.7678C6.79893 18.2366 6.16304 18.5 5.5 18.5H4.75V22.5H3.25V18.5H2.5C1.83696 18.5 1.20107 18.2366 0.732233 17.7678C0.263392 17.2989 0 16.663 0 16C0 15.337 0.263392 14.7011 0.732233 14.2322C1.20107 13.7634 1.83696 13.5 2.5 13.5H3.25V12.5H0V7.5H3.25V6.5H2.5C1.83696 6.5 1.20107 6.23661 0.732233 5.76777C0.263392 5.29893 0 4.66304 0 4C0 3.33696 0.263392 2.70107 0.732233 2.23223C1.20107 1.76339 1.83696 1.5 2.5 1.5H3.25V0.5H4.75V1.5H5.5C6.16304 1.5 6.79893 1.76339 7.26777 2.23223C7.73661 2.70107 8 3.33696 8 4C8 4.66304 7.73661 5.29893 7.26777 5.76777C6.79893 6.23661 6.16304 6.5 5.5 6.5H4.75V7.5ZM14.75 6.5H15.5C16.163 6.5 16.7989 6.23661 17.2678 5.76777C17.7366 5.29893 18 4.66304 18 4C18 3.33696 17.7366 2.70107 17.2678 2.23223C16.7989 1.76339 16.163 1.5 15.5 1.5H14.75V0.5H13.25V1.5H12.5C11.837 1.5 11.2011 1.76339 10.7322 2.23223C10.2634 2.70107 10 3.33696 10 4C10 4.66304 10.2634 5.29893 10.7322 5.76777C11.2011 6.23661 11.837 6.5 12.5 6.5H13.25V7.5H10V12.5H13.25V13.5H12.5C11.837 13.5 11.2011 13.7634 10.7322 14.2322C10.2634 14.7011 10 15.337 10 16C10 16.663 10.2634 17.2989 10.7322 17.7678C11.2011 18.2366 11.837 18.5 12.5 18.5H13.25V22.5H14.75V18.5H15.5C16.163 18.5 16.7989 18.2366 17.2678 17.7678C17.7366 17.2989 18 16.663 18 16C18 15.337 17.7366 14.7011 17.2678 14.2322C16.7989 13.7634 16.163 13.5 15.5 13.5H14.75V12.5H18V7.5H14.75V6.5Z" fill="#14FFEC"/>
</svg>
