<svg width="20" height="21" viewBox="0 0 20 21" fill="none" xmlns="http://www.w3.org/2000/svg">
<path d="M18.5672 4.06719C18.6547 3.97978 18.7143 3.86837 18.7385 3.74707C18.7626 3.62576 18.7502 3.50002 18.7029 3.38576C18.6555 3.27149 18.5754 3.17384 18.4725 3.10517C18.3696 3.03651 18.2487 2.9999 18.125 3H1.875C1.75132 2.9999 1.63039 3.03651 1.52752 3.10517C1.42464 3.17384 1.34446 3.27149 1.29711 3.38576C1.24977 3.50002 1.23739 3.62576 1.26155 3.74707C1.2857 3.86837 1.34531 3.97978 1.43282 4.06719L9.375 12.0086V16.75H6.875C6.70924 16.75 6.55027 16.8158 6.43306 16.9331C6.31585 17.0503 6.25 17.2092 6.25 17.375C6.25 17.5408 6.31585 17.6997 6.43306 17.8169C6.55027 17.9342 6.70924 18 6.875 18H13.125C13.2908 18 13.4497 17.9342 13.5669 17.8169C13.6842 17.6997 13.75 17.5408 13.75 17.375C13.75 17.2092 13.6842 17.0503 13.5669 16.9331C13.4497 16.8158 13.2908 16.75 13.125 16.75H10.625V12.0086L18.5672 4.06719ZM16.6141 4.25L15.3641 5.5H4.6336L3.3836 4.25H16.6141Z" fill="#14FFEC"/>
</svg>
