<svg width="13" height="19" viewBox="0 0 13 19" fill="none" xmlns="http://www.w3.org/2000/svg">
<path d="M6.08677 0.557032C6.046 0.431454 5.96652 0.32201 5.85971 0.244397C5.75291 0.166783 5.62427 0.124986 5.49224 0.125H2.00864C1.87662 0.124986 1.74797 0.166783 1.64117 0.244397C1.53436 0.32201 1.45488 0.431454 1.41411 0.557032C0.938593 2.08471 0.567683 3.643 0.303956 5.22109C-0.263232 8.67813 -0.0358877 11.1398 0.979737 12.5383C1.22896 12.8898 1.5482 13.186 1.91739 13.4083C2.28658 13.6305 2.69775 13.774 3.12505 13.8297V17.625H1.87505C1.70929 17.625 1.55032 17.6908 1.43311 17.8081C1.3159 17.9253 1.25005 18.0842 1.25005 18.25C1.25005 18.4158 1.3159 18.5747 1.43311 18.6919C1.55032 18.8092 1.70929 18.875 1.87505 18.875H5.62505C5.79081 18.875 5.94978 18.8092 6.06699 18.6919C6.1842 18.5747 6.25005 18.4158 6.25005 18.25C6.25005 18.0842 6.1842 17.9253 6.06699 17.8081C5.94978 17.6908 5.79081 17.625 5.62505 17.625H4.37505V13.8297C4.80243 13.7743 5.2137 13.6309 5.58293 13.4086C5.95216 13.1864 6.27134 12.89 6.52036 12.5383C7.53599 11.1398 7.76411 8.67813 7.19692 5.22109C6.9332 3.643 6.56229 2.08471 6.08677 0.557032ZM1.70318 4.5C1.93755 3.28281 2.22896 2.17109 2.46802 1.375H5.03286C5.27192 2.17109 5.56177 3.28281 5.79849 4.5H1.70318ZM12.5 3.5625C12.5 3.74792 12.4451 3.92918 12.3421 4.08335C12.239 4.23752 12.0926 4.35768 11.9213 4.42864C11.75 4.49959 11.5615 4.51816 11.3797 4.48199C11.1978 4.44581 11.0307 4.35652 10.8996 4.22541C10.7685 4.0943 10.6792 3.92725 10.6431 3.7454C10.6069 3.56354 10.6255 3.37504 10.6964 3.20373C10.7674 3.03243 10.8875 2.88601 11.0417 2.783C11.1959 2.67998 11.3771 2.625 11.5625 2.625C11.8112 2.625 12.0496 2.72377 12.2255 2.89959C12.4013 3.0754 12.5 3.31386 12.5 3.5625ZM8.75005 1.0625C8.75005 0.87708 8.80503 0.695824 8.90805 0.541653C9.01106 0.387482 9.15748 0.267321 9.32878 0.196363C9.50009 0.125406 9.68859 0.106841 9.87045 0.143014C10.0523 0.179188 10.2194 0.268476 10.3505 0.399588C10.4816 0.5307 10.5709 0.697746 10.607 0.879603C10.6432 1.06146 10.6246 1.24996 10.5537 1.42127C10.4827 1.59257 10.3626 1.73899 10.2084 1.842C10.0542 1.94502 9.87297 2 9.68755 2C9.43891 2 9.20045 1.90123 9.02464 1.72541C8.84882 1.5496 8.75005 1.31114 8.75005 1.0625ZM10.625 7.3125C10.625 7.49792 10.5701 7.67918 10.4671 7.83335C10.364 7.98752 10.2176 8.10768 10.0463 8.17864C9.87501 8.24959 9.68651 8.26816 9.50465 8.23199C9.3228 8.19581 9.15575 8.10652 9.02464 7.97541C8.89353 7.8443 8.80424 7.67726 8.76806 7.4954C8.73189 7.31354 8.75046 7.12504 8.82141 6.95373C8.89237 6.78243 9.01253 6.63601 9.1667 6.533C9.32087 6.42998 9.50213 6.375 9.68755 6.375C9.93619 6.375 10.1746 6.47377 10.3505 6.64959C10.5263 6.8254 10.625 7.06386 10.625 7.3125Z" fill="#14FFEC"/>
</svg>
