<svg width="20" height="21" viewBox="0 0 20 21" fill="none" xmlns="http://www.w3.org/2000/svg">
<path d="M12.9586 6.17031C13.7627 5.74536 14.4359 5.10929 14.9057 4.33048C15.3755 3.55166 15.6241 2.65954 15.625 1.75C15.625 1.58424 15.5591 1.42527 15.4419 1.30806C15.3247 1.19085 15.1657 1.125 15 1.125H14.375C13.4815 1.12534 12.6044 1.3651 11.835 1.81933C11.0656 2.27356 10.4319 2.92567 9.99996 3.70781C9.56802 2.92567 8.93437 2.27356 8.16496 1.81933C7.39554 1.3651 6.51846 1.12534 5.62496 1.125H4.99996C4.8342 1.125 4.67523 1.19085 4.55802 1.30806C4.44081 1.42527 4.37496 1.58424 4.37496 1.75C4.37496 1.91576 4.44081 2.07473 4.55802 2.19194C4.67523 2.30915 4.8342 2.375 4.99996 2.375H5.62496C6.51657 2.37622 7.37866 2.69456 8.05709 3.27308C8.73552 3.85161 9.18604 4.6526 9.32809 5.53281C7.67374 5.69474 6.13408 6.45056 4.99414 7.66036C3.85419 8.87016 3.19117 10.452 3.1278 12.113C3.06444 13.7741 3.60503 15.4018 4.64949 16.695C5.69396 17.9881 7.17156 18.859 8.80877 19.1465C10.446 19.434 12.1319 19.1186 13.5544 18.2587C14.977 17.3987 16.0398 16.0525 16.5461 14.4693C17.0524 12.886 16.968 11.1729 16.3084 9.64711C15.6488 8.12132 14.4588 6.88617 12.9586 6.17031ZM14.3226 2.375C14.1752 3.23943 13.7301 4.02507 13.0643 4.5958C12.3985 5.16653 11.5541 5.4864 10.6773 5.5C10.8247 4.63557 11.2699 3.84993 11.9356 3.2792C12.6014 2.70847 13.4458 2.3886 14.3226 2.375ZM14.3664 13.1031C14.2056 14.0092 13.7704 14.8441 13.1197 15.4948C12.469 16.1455 11.6342 16.5806 10.7281 16.7414C10.694 16.7469 10.6595 16.7498 10.625 16.75C10.4683 16.7498 10.3174 16.6907 10.2022 16.5844C10.087 16.4782 10.0159 16.3325 10.003 16.1764C9.99014 16.0202 10.0364 15.8649 10.1326 15.7412C10.2289 15.6175 10.3681 15.5345 10.5226 15.5086C11.173 15.393 11.7722 15.0806 12.2393 14.6135C12.7064 14.1464 13.0188 13.5472 13.1343 12.8969C13.163 12.7346 13.2546 12.5903 13.3892 12.4952C13.5238 12.4002 13.6904 12.3621 13.8529 12.3893C14.0154 12.4165 14.1606 12.5067 14.2569 12.6404C14.3532 12.7741 14.3928 12.9404 14.3672 13.1031H14.3664Z" fill="#14FFEC"/>
</svg>
