<svg width="20" height="21" viewBox="0 0 20 21" fill="none" xmlns="http://www.w3.org/2000/svg">
<path d="M16.0937 2.58516C16.0349 2.51892 15.9627 2.46592 15.8819 2.42969C15.8011 2.39346 15.7135 2.37482 15.625 2.375H4.37497C4.28628 2.37497 4.1986 2.39382 4.11775 2.43029C4.03691 2.46676 3.96475 2.52001 3.90608 2.58652C3.8474 2.65303 3.80355 2.73126 3.77745 2.81602C3.75134 2.90079 3.74357 2.99013 3.75466 3.07813L5.56325 18.1563C5.60134 18.4585 5.74851 18.7365 5.9771 18.9379C6.2057 19.1393 6.49999 19.2503 6.80466 19.25H13.1953C13.501 19.2501 13.7962 19.1381 14.0249 18.9353C14.2537 18.7324 14.4002 18.4528 14.4367 18.1492L16.2453 3.07813C16.2565 2.9899 16.2489 2.90029 16.2227 2.81528C16.1966 2.73027 16.1526 2.65181 16.0937 2.58516ZM14.9218 3.625L14.6953 5.5H5.30466L5.0781 3.625H14.9218Z" fill="#14FFEC"/>
</svg>
