<svg width="20" height="21" viewBox="0 0 20 21" fill="none" xmlns="http://www.w3.org/2000/svg">
<path d="M18.714 5.42181C18.6755 5.26182 18.6056 5.11106 18.5084 4.97829C18.4111 4.84552 18.2885 4.73338 18.1476 4.64838C15.6899 3.16166 12.8723 2.37573 9.99994 2.37573C7.12757 2.37573 4.30996 3.16166 1.85228 4.64838C1.71178 4.73359 1.58946 4.84567 1.49231 4.9782C1.39517 5.11074 1.32511 5.26113 1.28614 5.42076C1.24717 5.5804 1.24007 5.74615 1.26522 5.90854C1.29038 6.07093 1.34731 6.22676 1.43275 6.36713L8.93275 18.6538C9.04417 18.8375 9.20105 18.9894 9.38826 19.0948C9.57546 19.2002 9.78667 19.2556 10.0015 19.2556C10.2163 19.2556 10.4275 19.2002 10.6147 19.0948C10.802 18.9894 10.9588 18.8375 11.0703 18.6538L18.5703 6.36713C18.6558 6.227 18.7126 6.07124 18.7372 5.90893C18.7619 5.74663 18.754 5.58103 18.714 5.42181ZM14.4093 10.7757C13.7146 10.4604 12.9286 10.4101 12.1994 10.6343C11.4702 10.8585 10.8482 11.3417 10.4506 11.9928C10.053 12.6439 9.90739 13.418 10.0411 14.169C10.1748 14.9201 10.5787 15.5963 11.1765 16.0703L9.99994 17.9999L7.539 13.971C7.94303 13.789 8.30371 13.5231 8.59712 13.1909C8.89052 12.8588 9.10993 12.4681 9.24079 12.0447C9.37165 11.6213 9.41096 11.1749 9.35611 10.7352C9.30126 10.2954 9.15352 9.87238 8.92267 9.4941C8.69183 9.11582 8.38317 8.79096 8.01718 8.54108C7.65119 8.29121 7.23624 8.12203 6.79987 8.04479C6.3635 7.96754 5.91569 7.98398 5.48616 8.09303C5.05663 8.20208 4.65521 8.40124 4.30853 8.67728L3.81244 7.864C5.67575 6.7266 7.81653 6.12484 9.99955 6.12484C12.1826 6.12484 14.3234 6.7266 16.1867 7.864L14.4093 10.7757Z" fill="#14FFEC"/>
</svg>
