<svg width="20" height="21" viewBox="0 0 20 21" fill="none" xmlns="http://www.w3.org/2000/svg">
<path d="M17.9312 6.29763C17.8578 6.22863 17.7688 6.17838 17.6718 6.15118C17.5748 6.12397 17.4727 6.12061 17.3741 6.14138C17.2528 5.70511 17.0464 5.29712 16.7669 4.94085C16.4874 4.58457 16.1402 4.28703 15.7454 4.06532C15.3505 3.84362 14.9158 3.70211 14.4661 3.64893C14.0164 3.59575 13.5606 3.63195 13.1249 3.75545C12.8507 3.15706 12.4104 2.64999 11.8565 2.29448C11.3025 1.93898 10.6581 1.75 9.99991 1.75C9.34169 1.75 8.6973 1.93898 8.14334 2.29448C7.58937 2.64999 7.14912 3.15706 6.87491 3.75545C6.43934 3.63179 5.98364 3.5954 5.53397 3.64837C5.08429 3.70134 4.64952 3.84262 4.25461 4.06411C3.8597 4.28559 3.51243 4.58291 3.23276 4.93899C2.95309 5.29507 2.74651 5.70289 2.62491 6.13904C2.52224 6.11797 2.41592 6.12306 2.31573 6.15384C2.21554 6.18462 2.1247 6.2401 2.05156 6.31518C1.97843 6.39025 1.92535 6.48252 1.89721 6.58348C1.86907 6.68444 1.86678 6.79086 1.89053 6.89295L4.27803 17.0367C4.34266 17.3109 4.49805 17.5553 4.71899 17.7302C4.93993 17.905 5.21346 18.0001 5.49522 18H14.5046C14.7864 18.0001 15.0599 17.905 15.2808 17.7302C15.5018 17.5553 15.6572 17.3109 15.7218 17.0367L18.1085 6.89295C18.1334 6.78687 18.1301 6.67612 18.099 6.5717C18.0679 6.46727 18.01 6.37279 17.9312 6.29763ZM5.49522 16.75L3.35225 7.64373L6.30928 8.48826L7.41085 16.75H5.49522ZM9.53585 6.26248L6.84132 7.3406L3.82803 6.47966C3.91526 6.16411 4.0722 5.87216 4.28729 5.62534C4.50237 5.37852 4.77012 5.18313 5.07078 5.05357C5.37144 4.92401 5.69734 4.86359 6.02446 4.87676C6.35158 4.88993 6.67158 4.97635 6.96085 5.12966C7.04592 5.17479 7.14028 5.19965 7.23654 5.20229C7.33281 5.20494 7.42839 5.1853 7.51581 5.14492C7.60324 5.10453 7.68015 5.04449 7.74054 4.96948C7.80094 4.89446 7.84318 4.80651 7.86397 4.71248C7.97216 4.22687 8.24264 3.79265 8.6308 3.48144C9.01897 3.17024 9.50162 3.00065 9.99913 3.00065C10.4966 3.00065 10.9793 3.17024 11.3675 3.48144C11.7556 3.79265 12.0261 4.22687 12.1343 4.71248C12.1551 4.80651 12.1973 4.89446 12.2577 4.96948C12.3181 5.04449 12.395 5.10453 12.4824 5.14492C12.5699 5.1853 12.6654 5.20494 12.7617 5.20229C12.858 5.19965 12.9523 5.17479 13.0374 5.12966C13.3267 4.97606 13.6469 4.88939 13.9742 4.87607C14.3015 4.86275 14.6276 4.92311 14.9285 5.05269C15.2293 5.18227 15.4973 5.37777 15.7124 5.62475C15.9276 5.87174 16.0846 6.1639 16.1718 6.47966L13.1593 7.33904L10.4648 6.26091C10.1664 6.1421 9.83379 6.14265 9.53585 6.26248ZM14.5046 16.75H12.589L13.6905 8.48826L16.6476 7.64373L14.5046 16.75Z" fill="#14FFEC"/>
</svg>
