<svg width="22" height="19" viewBox="0 0 22 19" fill="none" xmlns="http://www.w3.org/2000/svg">
<path d="M16 13.4998C16.9286 13.4998 17.8388 13.2412 18.6287 12.753C19.4185 12.2648 20.0569 11.5664 20.4721 10.7358C20.8874 9.90529 21.0632 8.97554 20.9798 8.05073C20.8964 7.12592 20.5571 6.2426 20 5.49976C17.875 2.66976 15 1.49976 11 1.49976C7 1.49976 1 4.36476 1 7.99976C1 8.6628 1.26339 9.29868 1.73223 9.76752C2.20107 10.2364 2.83696 10.4998 3.5 10.4998H7C8.324 10.4668 11 10.9998 13.236 12.6668C14.0554 13.2101 15.0168 13.4999 16 13.4998Z" fill="#14FFEC" stroke="#14FFEC" stroke-width="1.5" stroke-linecap="round" stroke-linejoin="round"/>
<path d="M1 7.99976V8.49976C1 11.3278 1 12.7428 1.879 13.6208C2.757 14.4998 4.172 14.4998 7 14.4998C8.324 14.4678 11 14.9998 13.236 16.6668C13.9894 17.1665 14.8641 17.4527 15.7672 17.4948C16.6703 17.5369 17.5679 17.3333 18.3645 16.9058C19.1611 16.4782 19.8269 15.8427 20.2909 15.0669C20.755 14.291 21.0001 13.4038 21 12.4998V8.49976" stroke="#14FFEC" stroke-width="1.5" stroke-linecap="round" stroke-linejoin="round"/>
<path d="M17.5 8.49976C17.5 8.89758 17.342 9.27911 17.0607 9.56042C16.7794 9.84172 16.3978 9.99976 16 9.99976C15.6022 9.99976 15.2206 9.84172 14.9393 9.56042C14.658 9.27911 14.5 8.89758 14.5 8.49976C14.5 8.10193 14.658 7.7204 14.9393 7.4391C15.2206 7.15779 15.6022 6.99976 16 6.99976C16.3978 6.99976 16.7794 7.15779 17.0607 7.4391C17.342 7.7204 17.5 8.10193 17.5 8.49976Z" stroke="#283C3D" stroke-opacity="0.3" stroke-width="1.5" stroke-linecap="round" stroke-linejoin="round"/>
</svg>
