<svg width="20" height="21" viewBox="0 0 20 21" fill="none" xmlns="http://www.w3.org/2000/svg">
<path d="M16.0413 8.59922L14.3405 2.82344C14.3024 2.69403 14.2235 2.58043 14.1155 2.49961C14.0075 2.41878 13.8762 2.37507 13.7413 2.375H6.25851C6.12362 2.37507 5.99236 2.41878 5.88436 2.49961C5.77636 2.58043 5.6974 2.69403 5.65929 2.82344L3.95851 8.59922C3.69167 9.48449 3.6777 10.4268 3.91819 11.3195C4.15868 12.2123 4.64405 13.0201 5.31945 13.6516C6.43053 14.6934 7.85801 15.3338 9.37492 15.4711V18.625H6.87492C6.70916 18.625 6.55019 18.6908 6.43298 18.8081C6.31577 18.9253 6.24992 19.0842 6.24992 19.25C6.24992 19.4158 6.31577 19.5747 6.43298 19.6919C6.55019 19.8092 6.70916 19.875 6.87492 19.875H13.1249C13.2907 19.875 13.4497 19.8092 13.5669 19.6919C13.6841 19.5747 13.7499 19.4158 13.7499 19.25C13.7499 19.0842 13.6841 18.9253 13.5669 18.8081C13.4497 18.6908 13.2907 18.625 13.1249 18.625H10.6249V15.4711C12.1419 15.3339 13.5694 14.6935 14.6804 13.6516C15.3556 13.02 15.8409 12.2122 16.0814 11.3195C16.3219 10.4267 16.308 9.48451 16.0413 8.59922ZM6.7257 3.625H13.2741L14.8437 8.95234C14.8507 8.97578 14.857 8.99922 14.8632 9.02266C13.1898 9.62266 11.3054 8.89766 10.2827 8.37969C8.31476 7.38359 6.75226 7.25703 5.59992 7.44766L6.7257 3.625Z" fill="#14FFEC"/>
</svg>
