<svg width="30" height="30" viewBox="0 0 30 30" fill="none" xmlns="http://www.w3.org/2000/svg">
<path d="M27.3658 12.5553C27.363 12.9515 27.2328 13.3362 26.9946 13.6527C26.7564 13.9693 26.4227 14.2008 26.0428 14.3131L26.0193 14.3202L16.8787 16.8796L14.3193 26.0202L14.3123 26.0436C14.1998 26.4234 13.9682 26.757 13.6517 26.9952C13.3352 27.2334 12.9506 27.3636 12.5545 27.3667H12.5193C12.1309 27.3703 11.7512 27.2514 11.4342 27.027C11.1172 26.8025 10.8789 26.4838 10.7533 26.1163L3.108 5.50416C3.10553 5.49809 3.10357 5.49182 3.10214 5.48541C2.98789 5.15358 2.96906 4.79633 3.0478 4.45433C3.12654 4.11232 3.29969 3.79927 3.54755 3.55081C3.7954 3.30234 4.10802 3.12842 4.44983 3.04884C4.79165 2.96926 5.14893 2.98721 5.48105 3.10065L5.4998 3.10651L26.1154 10.7542C26.4887 10.8818 26.8114 11.1254 27.0364 11.4494C27.2613 11.7735 27.3768 12.161 27.3658 12.5553Z" fill="#14FFEC"/>
</svg>
