<svg width="24" height="24" viewBox="0 0 24 24" fill="none" xmlns="http://www.w3.org/2000/svg">
<path d="M19.7556 18.3874C19.7556 18.88 19.6479 19.3666 19.4398 19.8131C19.2318 20.2597 18.9285 20.6552 18.5513 20.9721C18.1741 21.2889 17.7322 21.5193 17.2564 21.6472C16.7807 21.775 16.2828 21.7972 15.7976 21.7121C15.3124 21.627 14.8517 21.4367 14.4478 21.1546C14.044 20.8725 13.7068 20.5054 13.46 20.0792C13.2131 19.6529 13.0625 19.1777 13.0189 18.6871C12.9752 18.1964 13.0394 17.7021 13.2071 17.2389L8.23837 14.0467C7.76382 14.5122 7.16237 14.8272 6.50949 14.9522C5.8566 15.0772 5.18134 15.0065 4.56843 14.7492C3.95552 14.4919 3.43226 14.0593 3.06428 13.5057C2.6963 12.9521 2.5 12.3021 2.5 11.6374C2.5 10.9726 2.6963 10.3227 3.06428 9.76909C3.43226 9.21549 3.95552 8.78288 4.56843 8.52554C5.18134 8.2682 5.8566 8.19758 6.50949 8.32255C7.16237 8.44752 7.76382 8.76251 8.23837 9.228L13.2071 6.0405C12.9226 5.25867 12.9361 4.39941 13.2451 3.62692C13.5541 2.85443 14.1369 2.22286 14.8821 1.8529C15.6273 1.48295 16.4827 1.40054 17.2848 1.62142C18.087 1.84231 18.7796 2.351 19.2304 3.0503C19.6811 3.74959 19.8585 4.59047 19.7284 5.41224C19.5984 6.23401 19.1701 6.97906 18.5255 7.50502C17.8808 8.03098 17.065 8.30099 16.2338 8.26343C15.4027 8.22587 14.6145 7.8834 14.0199 7.30144L9.05119 10.4936C9.31972 11.2357 9.31972 12.0484 9.05119 12.7905L14.0199 15.9827C14.4943 15.5184 15.0951 15.2043 15.7471 15.0797C16.3991 14.9551 17.0733 15.0256 17.6855 15.2822C18.2977 15.5389 18.8206 15.9704 19.1888 16.5227C19.557 17.075 19.7541 17.7236 19.7556 18.3874Z" fill="#14FFEC"/>
</svg>
