<svg width="20" height="21" viewBox="0 0 20 21" fill="none" xmlns="http://www.w3.org/2000/svg">
<path d="M17.9422 9.06719L14.1922 12.8172C14.1048 12.9047 13.9934 12.9643 13.8721 12.9885C13.7508 13.0126 13.625 13.0002 13.5108 12.9529C13.3965 12.9055 13.2988 12.8254 13.2302 12.7225C13.1615 12.6196 13.1249 12.4987 13.125 12.375V9.25H10C8.17727 9.25207 6.42979 9.97706 5.14092 11.2659C3.85206 12.5548 3.12707 14.3023 3.125 16.125C3.125 16.2908 3.05915 16.4497 2.94194 16.5669C2.82473 16.6842 2.66576 16.75 2.5 16.75C2.33424 16.75 2.17527 16.6842 2.05806 16.5669C1.94085 16.4497 1.875 16.2908 1.875 16.125C1.87727 13.9708 2.73403 11.9055 4.25727 10.3823C5.78051 8.85903 7.84581 8.00228 10 8H13.125V4.875C13.1249 4.75132 13.1615 4.63039 13.2302 4.52752C13.2988 4.42464 13.3965 4.34446 13.5108 4.29711C13.625 4.24977 13.7508 4.23739 13.8721 4.26155C13.9934 4.2857 14.1048 4.34531 14.1922 4.43282L17.9422 8.18282C18.0003 8.24086 18.0464 8.30979 18.0779 8.38567C18.1093 8.46154 18.1255 8.54287 18.1255 8.625C18.1255 8.70714 18.1093 8.78847 18.0779 8.86434C18.0464 8.94022 18.0003 9.00915 17.9422 9.06719Z" fill="#14FFEC"/>
</svg>
